<svg xmlns="http://www.w3.org/2000/svg" xmlns:xlink="http://www.w3.org/1999/xlink" version="1.1" x="0" y="0" viewBox="0 0 250 250" xml:space="preserve">
  <style type="text/css">
    
	.st0{enable-background:new    ;}
	.st1{fill:#1A5472;}
	.st2{fill:#1B5574;}
	.st3{fill:#1C5675;}
	.st4{clip-path:url(#XMLID_3_);enable-background:new    ;}
	.st5{fill:#195270;}
	.st6{clip-path:url(#XMLID_4_);enable-background:new    ;}
	.st7{fill:#1A5473;}
	.st8{fill:#1C5776;}
	.st9{clip-path:url(#XMLID_5_);enable-background:new    ;}
	.st10{fill:#3281AC;}
	.st11{clip-path:url(#XMLID_6_);enable-background:new    ;}

  </style>
  <g class="st0">
    <rect x="181" y="56.4" class="st1" width="7.5" height="27"/>
    <polygon class="st2" points="184.2 147.5 176.7 147.5 180 117.3 187.5 117.3 "/>
    <polygon class="st3" points="174.6 83.4 167.1 83.4 181 83.4 188.5 83.4 "/>
    <g class="st0">
      <defs>
        <path class="st0" d="M188.5 56.4l-7.5 0c-2.4-0.4-10.6-1.2-20.2-1.2l7.5 0C177.8 55.2 186.1 56 188.5 56.4z"/>
      </defs>
      <clipPath>
        <use xlink:href="#XMLID_95_"/>
      </clipPath>
      <g class="st4">
        <path class="st5" d="M188.5 56.4H181c-2.4-0.4-10.6-1.2-20.2-1.2h7.5C177.8 55.2 186.1 56 188.5 56.4"/>
      </g>
    </g>
    <polygon class="st3" points="161.7 147.5 154.2 147.5 176.7 147.5 184.2 147.5 "/>
    <rect x="154.2" y="147.5" class="st1" width="7.5" height="77.5"/>
    <rect x="154.2" y="98.1" class="st1" width="7.5" height="19.3"/>
    <g class="st0">
      <defs>
        <path class="st0" d="M161.7 98.1h-7.5c0-8.8 2.1-14.7 12.9-14.7l7.5 0C163.8 83.4 161.7 89.3 161.7 98.1z"/>
      </defs>
      <clipPath>
        <use xlink:href="#XMLID_85_"/>
      </clipPath>
      <g class="st6">
        <path class="st5" d="M161.7 98.1h-7.5c0-2.9 0.2-5.5 0.9-7.7h7.5C161.9 92.6 161.7 95.2 161.7 98.1M162.6 90.4h-7.5c0.4-1.1 0.9-2.1 1.5-3h7.5C163.5 88.3 163 89.3 162.6 90.4M164.1 87.4h-7.5c1.9-2.6 5.1-4 10.5-4h7.5C169.2 83.4 166 84.9 164.1 87.4"/>
      </g>
    </g>
    <polygon class="st3" points="112.1 147.5 104.6 147.5 127.2 147.5 134.7 147.5 "/>
    <polygon class="st3" points="51.7 25 44.2 25 198.3 25 205.8 25 "/>
    <g class="st0">
      <defs>
        <path class="st0" d="M51.7 225h-7.5c-5.3 0-9.6-4.9-9.6-11h7.5C42.1 220.1 46.4 225 51.7 225z"/>
      </defs>
      <clipPath>
        <use xlink:href="#XMLID_75_"/>
      </clipPath>
      <g class="st9">
        <path class="st5" d="M51.7 225h-7.5c-5.3 0-9.6-4.9-9.6-11h7.5C42.1 220.1 46.4 225 51.7 225"/>
      </g>
    </g>
    <rect x="34.6" y="36" class="st1" width="7.5" height="177.9"/>
    <path class="st10" d="M205.8 25c5.3 0 9.6 4.9 9.6 11V214c0 6.1-4.3 11-9.6 11h-44.1v-77.5h22.5l3.4-30.2h-25.9V98.1c0-8.8 2.1-14.7 12.9-14.7h13.9v-27c-2.4-0.4-10.6-1.2-20.2-1.2 -20 0-33.6 14-33.6 39.9v22.3h-22.6v30.2h22.6V225h-83c-5.3 0-9.6-4.9-9.6-11V36c0-6.1 4.3-11 9.6-11L205.8 25z"/>
    <g class="st0">
      <defs>
        <path class="st0" d="M42.1 36h-7.5c0-6.1 4.3-11 9.6-11l7.5 0C46.4 25 42.1 29.9 42.1 36z"/>
      </defs>
      <clipPath>
        <use xlink:href="#XMLID_67_"/>
      </clipPath>
      <g class="st11">
        <path class="st5" d="M42.1 36h-7.5c0-1.4 0.2-2.7 0.6-3.9h7.5C42.4 33.3 42.1 34.7 42.1 36M42.8 32.1h-7.5c0.4-1.2 1-2.3 1.7-3.3h7.5C43.7 29.8 43.2 30.9 42.8 32.1M44.4 28.9h-7.5c1.8-2.4 4.4-3.9 7.3-3.9l7.5 0C48.8 25 46.2 26.5 44.4 28.9"/>
      </g>
    </g>
  </g>
</svg>
