<svg xmlns="http://www.w3.org/2000/svg" xmlns:xlink="http://www.w3.org/1999/xlink" version="1.1" x="0" y="0" viewBox="0 0 250 250" xml:space="preserve">
  <style type="text/css">
    
	.st0{enable-background:new    ;}
	.st1{clip-path:url(#XMLID_7_);enable-background:new    ;}
	.st2{fill:#195270;}
	.st3{fill:#1A5473;}
	.st4{fill:#1C5776;}
	.st5{fill:#3281AC;}
	.st6{clip-path:url(#XMLID_8_);enable-background:new    ;}
	.st7{clip-path:url(#XMLID_9_);enable-background:new    ;}
	.st8{clip-path:url(#XMLID_10_);enable-background:new    ;}
	.st9{clip-path:url(#XMLID_11_);enable-background:new    ;}
	.st10{clip-path:url(#XMLID_12_);enable-background:new    ;}

  </style>
  <g class="st0">
    <g class="st0">
      <defs>
        <path class="st0" d="M175 83.6l-7.5 0c-5.7 0-10.4-5.4-10.4-12 0-6.6 4.7-12 10.4-12l7.5 0c-5.7 0-10.4 5.4-10.4 12C164.6 78.2 169.2 83.6 175 83.6z"/>
      </defs>
      <clipPath>
        <use xlink:href="#XMLID_139_"/>
      </clipPath>
      <g class="st1">
        <path class="st2" d="M175 83.6h-7.5c-5.7 0-10.4-5.4-10.4-12 0-1.5 0.2-2.9 0.7-4.2h7.5c-0.4 1.3-0.7 2.7-0.7 4.2C164.6 78.2 169.2 83.6 175 83.6M165.2 67.4h-7.5c0.4-1.3 1-2.5 1.8-3.5h7.5C166.3 64.9 165.7 66.1 165.2 67.4M167.1 63.8h-7.5c1.9-2.6 4.7-4.2 7.9-4.2h7.5C171.8 59.6 169 61.3 167.1 63.8"/>
      </g>
    </g>
    <path class="st5" d="M175 59.6c5.7 0 10.4 5.4 10.4 12 0 6.6-4.7 12-10.4 12 -5.7 0-10.4-5.4-10.4-12C164.6 65 169.2 59.6 175 59.6z"/>
    <g class="st0">
      <defs>
        <path class="st0" d="M128.8 158.3l-7.5 0c15.9 0 28.9-14.9 28.9-33.3s-12.9-33.3-28.9-33.3h7.5c15.9 0 28.9 14.9 28.9 33.3S144.7 158.3 128.8 158.3z"/>
      </defs>
      <clipPath>
        <use xlink:href="#XMLID_131_"/>
      </clipPath>
      <g class="st6">
        <path class="st4" d="M128.8 158.3h-7.5c8.8 0 16.7-4.5 22-11.7h7.5C145.4 153.8 137.6 158.3 128.8 158.3M150.7 146.6h-7.5c2.1-2.9 3.9-6.2 5-9.8h7.5C154.6 140.4 152.9 143.7 150.7 146.6M155.8 136.8h-7.5c1.2-3.7 1.9-7.6 1.9-11.8 0-18.4-12.9-33.3-28.9-33.3h7.5c15.9 0 28.9 14.9 28.9 33.3C157.6 129.1 157 133.1 155.8 136.8"/>
      </g>
    </g>
    <g class="st0">
      <defs>
        <path class="st0" d="M199.2 165.4h-7.5c0.4-10.5 0.5-13.7 0.5-40.4s-0.1-29.9-0.5-40.4c-0.4-9.8-1.8-15-3-18.6 -1.6-4.7-3.4-8-6.5-11.5 -3-3.5-5.9-5.7-10-7.5 -3.1-1.4-7.6-3-16.1-3.5 -9.1-0.5-11.9-0.6-35-0.6l7.5 0c23.1 0 25.9 0.1 35 0.6 8.4 0.5 13 2.1 16.1 3.5 4 1.8 6.9 4 10 7.5 3 3.5 4.9 6.8 6.5 11.5 1.2 3.5 2.6 8.8 3 18.6 0.4 10.5 0.5 13.7 0.5 40.4S199.6 154.9 199.2 165.4z"/>
      </defs>
      <clipPath>
        <use xlink:href="#XMLID_125_"/>
      </clipPath>
      <g class="st7">
        <path class="st2" d="M199.2 165.4h-7.5c0.4-10.5 0.5-13.7 0.5-40.4s-0.1-29.9-0.5-40.4c-0.4-9.8-1.8-15-3-18.6 -1.6-4.7-3.4-8-6.5-11.5 -3-3.5-5.9-5.7-10-7.5 -3.1-1.4-7.6-3-16.1-3.5 -9.1-0.5-11.9-0.6-35-0.6h7.5c23.1 0 25.9 0.1 35 0.6 8.4 0.5 13 2.1 16.1 3.5 4 1.8 6.9 4 10 7.5 3 3.5 4.9 6.8 6.5 11.5 1.2 3.5 2.6 8.8 3 18.6 0.4 10.5 0.5 13.7 0.5 40.4S199.6 154.9 199.2 165.4"/>
      </g>
    </g>
    <g class="st0">
      <defs>
        <path class="st0" d="M128.7 207h-7.5c23.1 0 25.9-0.1 35-0.6 8.4-0.4 13-2.1 16.1-3.4 4.1-1.8 6.9-4 10-7.5 3-3.5 4.9-6.8 6.5-11.5 1.2-3.5 2.6-8.8 3-18.6h7.5c-0.4 9.7-1.8 15-3 18.6 -1.6 4.7-3.4 8-6.5 11.5 -3 3.5-5.9 5.7-10 7.5 -3 1.4-7.6 3-16.1 3.4C154.6 206.9 151.9 207 128.7 207z"/>
      </defs>
      <clipPath>
        <use xlink:href="#XMLID_121_"/>
      </clipPath>
      <g class="st8">
        <path class="st4" d="M128.7 207h-7.5c23.1 0 25.9-0.1 35-0.6 8.4-0.4 13-2.1 16.1-3.4 4.1-1.8 6.9-4 10-7.5 0.6-0.7 1.2-1.5 1.8-2.2h7.5c-0.5 0.7-1.1 1.5-1.8 2.2 -3 3.5-5.9 5.7-10 7.5 -3 1.4-7.6 3-16.1 3.4C154.6 206.9 151.9 207 128.7 207M191.6 193.3h-7.5c2-2.8 3.5-5.6 4.7-9.3 0-0.1 0.1-0.3 0.1-0.4h7.5c0 0.1-0.1 0.3-0.1 0.4C195 187.7 193.6 190.5 191.6 193.3M196.4 183.6h-7.5c1.2-3.5 2.5-8.8 2.9-18.2h7.5C198.9 174.8 197.5 180.1 196.4 183.6"/>
      </g>
    </g>
    <path class="st5" d="M128.8 73.6c24.6 0 44.5 23 44.5 51.4 0 28.4-19.9 51.3-44.5 51.3 -24.6 0-44.5-23-44.5-51.3C84.3 96.7 104.2 73.6 128.8 73.6zM128.8 158.3c15.9 0 28.9-14.9 28.9-33.3s-12.9-33.3-28.9-33.3S99.9 106.6 99.9 125 112.8 158.3 128.8 158.3"/>
    <g class="st0">
      <defs>
        <path class="st0" d="M128.8 176.3l-7.5 0c-24.6 0-44.5-23-44.5-51.3 0-28.3 19.9-51.4 44.5-51.4h7.5c-24.6 0-44.5 23-44.5 51.4C84.3 153.4 104.2 176.3 128.8 176.3z"/>
      </defs>
      <clipPath>
        <use xlink:href="#XMLID_111_"/>
      </clipPath>
      <g class="st9">
        <path class="st2" d="M128.8 176.3h-7.5c-24.6 0-44.5-23-44.5-51.3 0-6.4 1-12.5 2.9-18.1h7.5c-1.8 5.6-2.9 11.8-2.9 18.1C84.3 153.4 104.2 176.3 128.8 176.3M87.1 106.9h-7.5c1.8-5.6 4.5-10.7 7.8-15.2h7.5C91.6 96.2 89 101.3 87.1 106.9M94.9 91.7h-7.5c8.2-11 20.3-18 33.9-18h7.5C115.2 73.6 103.1 80.7 94.9 91.7"/>
      </g>
    </g>
    <path class="st5" d="M214.8 83.8c0.4 10.7 0.5 14.1 0.5 41.2s-0.1 30.6-0.5 41.2c-0.4 10.7-1.9 17.9-4 24.3 -2.2 6.6-5.2 12.2-10 17.7 -4.8 5.6-9.6 9-15.3 11.5 -5.5 2.5-11.8 4.1-21 4.6 -9.2 0.5-12.2 0.6-35.7 0.6s-26.5-0.1-35.7-0.6c-9.2-0.5-15.5-2.2-21-4.6 -5.7-2.5-10.5-6-15.3-11.5 -4.8-5.6-7.8-11.1-10-17.7 -2.1-6.4-3.6-13.6-4-24.3 -0.4-10.7-0.5-14.1-0.5-41.2s0.1-30.6 0.5-41.2c0.4-10.6 1.9-17.9 4-24.3 2.2-6.6 5.2-12.2 10-17.7 4.8-5.6 9.6-9 15.3-11.5 5.5-2.5 11.8-4.1 21-4.7 9.2-0.5 12.2-0.6 35.7-0.6 23.5 0 26.5 0.1 35.7 0.6 9.2 0.5 15.5 2.2 21 4.7 5.7 2.5 10.5 6 15.3 11.5 4.8 5.6 7.8 11.1 10 17.7C213 65.9 214.4 73.1 214.8 83.8zM199.2 165.4c0.4-10.5 0.5-13.7 0.5-40.4s-0.1-29.9-0.5-40.4c-0.4-9.8-1.8-15-3-18.6 -1.6-4.7-3.4-8-6.5-11.5 -3-3.5-5.9-5.7-10-7.5 -3.1-1.4-7.6-3-16.1-3.5 -9.1-0.5-11.9-0.6-35-0.6s-25.9 0.1-35 0.6c-8.4 0.5-13 2.1-16.1 3.5 -4 1.8-6.9 4-10 7.5 -3 3.5-4.9 6.8-6.5 11.5 -1.2 3.5-2.6 8.8-3 18.6 -0.4 10.5-0.5 13.7-0.5 40.4s0.1 29.9 0.5 40.4c0.4 9.7 1.8 15 3 18.6 1.6 4.7 3.4 8 6.5 11.5 3 3.5 5.9 5.7 10 7.5 3 1.4 7.6 3 16.1 3.4 9.1 0.5 11.9 0.6 35 0.6 23.1 0 25.9-0.1 35-0.6 8.4-0.4 13-2.1 16.1-3.4 4.1-1.8 6.9-4 10-7.5 3-3.5 4.9-6.8 6.5-11.5C197.4 180.4 198.8 175.2 199.2 165.4"/>
    <g class="st0">
      <defs>
        <path class="st0" d="M128.8 225h-7.5c-23.5 0-26.5-0.1-35.7-0.6 -9.2-0.5-15.5-2.2-21-4.6 -5.7-2.5-10.5-6-15.3-11.5 -4.8-5.6-7.8-11.1-10-17.7 -2.1-6.4-3.6-13.6-4-24.3 -0.4-10.7-0.5-14.1-0.5-41.2s0.1-30.6 0.5-41.2c0.4-10.6 1.9-17.9 4-24.3 2.2-6.6 5.2-12.2 10-17.7 4.8-5.6 9.6-9 15.3-11.5 5.5-2.5 11.8-4.1 21-4.7 9.2-0.5 12.2-0.6 35.7-0.6l7.5 0c-23.5 0-26.5 0.1-35.7 0.6 -9.2 0.5-15.5 2.2-21 4.7 -5.7 2.5-10.5 6-15.3 11.5 -4.8 5.6-7.8 11.1-10 17.7 -2.1 6.4-3.6 13.6-4 24.3 -0.4 10.7-0.5 14.1-0.5 41.2s0.1 30.6 0.5 41.2c0.4 10.7 1.9 17.9 4 24.3 2.2 6.6 5.2 12.2 10 17.7 4.8 5.6 9.6 9 15.3 11.5 5.5 2.5 11.8 4.2 21 4.6C102.3 224.9 105.2 225 128.8 225z"/>
      </defs>
      <clipPath>
        <use xlink:href="#XMLID_55_"/>
      </clipPath>
      <g class="st10">
        <path class="st2" d="M128.8 225h-7.5c-23.5 0-26.5-0.1-35.7-0.6 -9.2-0.5-15.5-2.2-21-4.6 -5.7-2.5-10.5-6-15.3-11.5 -4.8-5.6-7.8-11.1-10-17.7 -2.1-6.4-3.6-13.6-4-24.3 -0.4-10.7-0.5-14.1-0.5-41.2s0.1-30.6 0.5-41.2C35.6 73.4 37 66.2 39 60h7.5c-2.1 6.3-3.5 13.4-3.9 23.8 -0.4 10.7-0.5 14.1-0.5 41.2s0.1 30.6 0.5 41.2c0.4 10.7 1.9 17.9 4 24.3 2.2 6.6 5.2 12.2 10 17.7 4.8 5.6 9.6 9 15.3 11.5 5.5 2.5 11.8 4.2 21 4.6C102.3 224.9 105.2 225 128.8 225M46.5 60H39c0-0.2 0.1-0.3 0.2-0.5 1.8-5.3 4-9.9 7.4-14.4H54c-3.3 4.5-5.6 9.1-7.4 14.4C46.6 59.6 46.6 59.8 46.5 60M54 45.1h-7.5c0.8-1.1 1.7-2.2 2.6-3.3 4.8-5.6 9.6-9 15.3-11.5 5.5-2.5 11.8-4.1 21-4.7 9.2-0.5 12.2-0.6 35.7-0.6h7.5c-23.5 0-26.5 0.1-35.7 0.6 -9.2 0.5-15.5 2.2-21 4.7 -5.7 2.5-10.5 6-15.3 11.5C55.7 42.9 54.9 44 54 45.1"/>
      </g>
    </g>
  </g>
</svg>
