<svg xmlns="http://www.w3.org/2000/svg" xmlns:xlink="http://www.w3.org/1999/xlink" version="1.1" x="0" y="0" viewBox="0 0 250 250" xml:space="preserve">
  <style type="text/css">
    
	.st0{enable-background:new    ;}
	.st1{fill:#1A5472;}
	.st2{fill:#1C5675;}
	.st3{clip-path:url(#XMLID_6_);enable-background:new    ;}
	.st4{fill:#195270;}
	.st5{clip-path:url(#XMLID_7_);enable-background:new    ;}
	.st6{fill:#1A5473;}
	.st7{fill:#1C5776;}
	.st8{clip-path:url(#XMLID_8_);enable-background:new    ;}
	.st9{clip-path:url(#XMLID_9_);enable-background:new    ;}
	.st10{fill:#3281AC;}
	.st11{clip-path:url(#XMLID_10_);enable-background:new    ;}

  </style>
  <g class="st0">
    <rect x="182.2" y="143" class="st1" width="7.5" height="52.4"/>
    <polygon class="st2" points="164.1 195.4 156.6 195.4 182.2 195.4 189.7 195.4 "/>
    <g class="st0">
      <defs>
        <path class="st0" d="M189.7 143h-7.5c0-25.7-4.8-45.5-30.8-45.5l7.5 0C184.9 97.6 189.7 117.3 189.7 143z"/>
      </defs>
      <clipPath>
        <use xlink:href="#XMLID_140_"/>
      </clipPath>
      <g class="st3">
        <path class="st4" d="M189.7 143h-7.5c0-25.7-4.8-45.5-30.8-45.5h7.5C184.9 97.6 189.7 117.3 189.7 143"/>
      </g>
    </g>
    <rect x="127.8" y="148.2" class="st1" width="7.5" height="47.2"/>
    <g class="st0">
      <defs>
        <path class="st0" d="M135.3 148.2h-7.5c0-12.4 2-24.5 15.4-24.5h7.5C137.3 123.7 135.3 135.8 135.3 148.2z"/>
      </defs>
      <clipPath>
        <use xlink:href="#XMLID_134_"/>
      </clipPath>
      <g class="st5">
        <path class="st4" d="M135.3 148.2h-7.5c0-5.2 0.4-10.3 1.7-14.5h7.5C135.6 137.9 135.3 143 135.3 148.2M137 133.7h-7.5c0.6-1.8 1.4-3.5 2.5-4.9h7.5C138.4 130.2 137.6 131.9 137 133.7M139.5 128.8H132c2.3-3.1 5.9-5.1 11.2-5.1h7.5C145.3 123.7 141.8 125.7 139.5 128.8"/>
      </g>
    </g>
    <rect x="126.8" y="100" class="st1" width="7.5" height="13"/>
    <polygon class="st2" points="109.6 195.4 102.1 195.4 127.8 195.4 135.3 195.4 "/>
    <rect x="86" y="100" class="st1" width="7.5" height="95.4"/>
    <g class="st0">
      <defs>
        <path class="st0" d="M80.7 86.9h-7.5c8.2 0 14.9-7.7 14.9-17.2 0-9.5-6.7-17.2-14.9-17.2l7.5 0c8.2 0 14.9 7.7 14.9 17.2C95.6 79.2 88.9 86.9 80.7 86.9z"/>
      </defs>
      <clipPath>
        <use xlink:href="#XMLID_122_"/>
      </clipPath>
      <g class="st8">
        <path class="st7" d="M80.7 86.9h-7.5c4.5 0 8.6-2.3 11.3-6.1H92C89.3 84.6 85.2 86.9 80.7 86.9M92 80.9h-7.5c1.1-1.5 2-3.2 2.6-5.1h7.5C94 77.7 93.1 79.4 92 80.9M94.6 75.8h-7.5c0.6-1.9 1-3.9 1-6.1 0-9.5-6.7-17.2-14.9-17.2h7.5c8.2 0 14.9 7.7 14.9 17.2C95.6 71.9 95.2 73.9 94.6 75.8"/>
      </g>
    </g>
    <polygon class="st2" points="67.8 195.4 60.3 195.4 86 195.4 93.5 195.4 "/>
    <polygon class="st2" points="54.9 25 47.4 25 195 25 202.5 25 "/>
    <g class="st0">
      <defs>
        <path class="st0" d="M54.9 225h-7.5c-7.1 0-12.8-6.5-12.8-14.4h7.5C42.1 218.5 47.9 225 54.9 225z"/>
      </defs>
      <clipPath>
        <use xlink:href="#XMLID_112_"/>
      </clipPath>
      <g class="st9">
        <path class="st4" d="M54.9 225h-7.5c-7.1 0-12.8-6.5-12.8-14.4h7.5C42.1 218.5 47.9 225 54.9 225"/>
      </g>
    </g>
    <rect x="34.6" y="39.4" class="st1" width="7.5" height="171.2"/>
    <path class="st10" d="M202.5 25c7.1 0 12.8 6.4 12.8 14.4v171.2c0 8-5.8 14.4-12.8 14.4H54.9c-7.1 0-12.8-6.5-12.8-14.4V39.4c0-8 5.7-14.4 12.8-14.4L202.5 25zM189.7 195.4V143c0-25.7-4.8-45.5-30.8-45.5 -12.5 0-20.9 7.9-24.3 15.4h-0.3v-13h-24.6v95.4h25.7v-47.2c0-12.4 2-24.5 15.4-24.5 13.2 0 13.4 14.2 13.4 25.3v46.4H189.7M93.5 195.4V100H67.8v95.4H93.5M80.7 86.9c8.2 0 14.9-7.7 14.9-17.2 0-9.5-6.7-17.2-14.9-17.2 -8.2 0-14.9 7.7-14.9 17.2C65.8 79.2 72.4 86.9 80.7 86.9"/>
    <g class="st0">
      <defs>
        <path class="st0" d="M42.1 39.4h-7.5c0-8 5.7-14.4 12.8-14.4l7.5 0C47.9 25 42.1 31.4 42.1 39.4z"/>
      </defs>
      <clipPath>
        <use xlink:href="#XMLID_48_"/>
      </clipPath>
      <g class="st11">
        <path class="st4" d="M42.1 39.4h-7.5c0-1.8 0.3-3.4 0.8-5h7.5C42.4 36 42.1 37.7 42.1 39.4M42.9 34.4h-7.5c0.5-1.6 1.2-3 2.2-4.2h7.5C44.2 31.4 43.4 32.9 42.9 34.4M45.1 30.2h-7.5c2.3-3.2 5.9-5.2 9.8-5.2h7.5C51 25 47.4 27 45.1 30.2"/>
      </g>
    </g>
  </g>
</svg>
