<svg xmlns="http://www.w3.org/2000/svg" xmlns:xlink="http://www.w3.org/1999/xlink" version="1.1" x="0" y="0" viewBox="0 0 250 250" xml:space="preserve">
  <style type="text/css">
    
	.st0{enable-background:new    ;}
	.st1{clip-path:url(#XMLID_3_);enable-background:new    ;}
	.st2{fill:#1C5776;}
	.st3{fill:#1A5473;}
	.st4{fill:#195270;}
	.st5{clip-path:url(#XMLID_4_);enable-background:new    ;}
	.st6{fill:#1B5675;}
	.st7{clip-path:url(#XMLID_5_);enable-background:new    ;}
	.st8{clip-path:url(#XMLID_6_);enable-background:new    ;}
	.st9{clip-path:url(#XMLID_7_);enable-background:new    ;}
	.st10{clip-path:url(#XMLID_8_);enable-background:new    ;}
	.st11{fill:#3281AC;}

  </style>
  <g class="st0">
    <g class="st0">
      <defs>
        <path class="st0" d="M139.1 182.1h-7.5c26.1 0 45-27.7 45-62.2 0-33-23.4-57.7-53.4-57.7l7.5 0c30 0 53.4 24.7 53.4 57.7C184.1 154.3 165.2 182.1 139.1 182.1z"/>
      </defs>
      <clipPath>
        <use xlink:href="#XMLID_95_"/>
      </clipPath>
      <g class="st1">
        <path class="st2" d="M139.1 182.1h-7.5c12.7 0 23.7-6.6 31.7-17.3h7.5C162.8 175.5 151.8 182.1 139.1 182.1M170.8 164.7h-7.5c3.9-5.2 7-11.4 9.2-18.3h7.5C177.7 153.3 174.6 159.5 170.8 164.7M180 146.4l-7.5 0c2.6-8.1 4.1-17.1 4.1-26.6 0-33-23.4-57.7-53.4-57.7h7.5c30 0 53.4 24.7 53.4 57.7C184.1 129.4 182.6 138.4 180 146.4"/>
      </g>
    </g>
    <g class="st0">
      <defs>
        <path class="st0" d="M137.3 166l-7.5 0c-8.5 0-14.9-8.1-12.8-18.1 2.4-11.9 7.2-24.7 7.2-33.3 0-7.7-3.6-14.1-11-14.1l7.5 0c7.4 0 11 6.4 11 14.1 0 8.6-4.7 21.4-7.2 33.3C122.5 157.9 128.8 166 137.3 166z"/>
      </defs>
      <clipPath>
        <use xlink:href="#XMLID_89_"/>
      </clipPath>
      <g class="st5">
        <path class="st4" d="M137.3 166h-7.5c-8.5 0-14.9-8.1-12.8-18.1 2.4-11.9 7.2-24.7 7.2-33.3 0-7.7-3.6-14.1-11-14.1h7.5c7.4 0 11 6.4 11 14.1 0 8.6-4.7 21.4-7.2 33.3C122.5 157.9 128.8 166 137.3 166"/>
      </g>
    </g>
    <polygon class="st6" points="113.8 194.3 106.3 194.3 111.8 170.5 119.3 170.5 "/>
    <g class="st0">
      <defs>
        <path class="st0" d="M103.1 220.5l-7.5 0c3.5-6.6 8.8-17.5 10.8-26.2h7.5C111.9 203 106.6 213.9 103.1 220.5z"/>
      </defs>
      <clipPath>
        <use xlink:href="#XMLID_83_"/>
      </clipPath>
      <g class="st7">
        <path class="st3" d="M103.1 220.5h-7.5c2.9-5.4 6.8-13.5 9.3-21h7.5C109.9 207.1 105.9 215.2 103.1 220.5M112.4 199.6h-7.5c0.6-1.8 1.1-3.6 1.5-5.2h7.5C113.5 196 113 197.8 112.4 199.6"/>
      </g>
    </g>
    <g class="st0">
      <defs>
        <path class="st0" d="M128.7 225h-7.5c-8.9 0-17.5-1.6-25.7-4.5l7.5 0C111.2 223.4 119.8 225 128.7 225z"/>
      </defs>
      <clipPath>
        <use xlink:href="#XMLID_78_"/>
      </clipPath>
      <g class="st8">
        <path class="st4" d="M128.7 225h-7.5c-8.9 0-17.5-1.6-25.7-4.5h7.5C111.2 223.4 119.8 225 128.7 225"/>
      </g>
    </g>
    <g class="st0">
      <defs>
        <path class="st0" d="M92.4 161.8h-7.5c0.8 0 1.2-0.6 1.5-1.8 0.3-1.4 1.8-8.2 2.4-11.3 0.2-1 0.1-1.9-0.6-2.9 -3.6-5-6.4-14.2-6.4-22.8 0-22.1 14.4-43.4 39.1-43.4l7.5 0c-24.6 0-39.1 21.3-39.1 43.4 0 8.6 2.8 17.8 6.4 22.8 0.7 1 0.8 1.9 0.6 2.9 -0.7 3.2-2.1 9.9-2.4 11.3C93.7 161.2 93.2 161.8 92.4 161.8z"/>
      </defs>
      <clipPath>
        <use xlink:href="#XMLID_74_"/>
      </clipPath>
      <g class="st9">
        <path class="st2" d="M92.4 161.8h-7.5c0.4 0 0.7-0.2 1-0.5h7.5C93.2 161.6 92.8 161.8 92.4 161.8M93.4 161.3h-7.5c0.1-0.2 0.3-0.4 0.4-0.7h7.5C93.7 160.9 93.6 161.1 93.4 161.3M93.8 160.6h-7.5c0.1-0.2 0.1-0.4 0.1-0.6 0.3-1.4 1.8-8.2 2.4-11.3 0.2-1 0.1-1.9-0.6-2.9 -3.6-5-6.4-14.2-6.4-22.8 0-5.3 0.8-10.6 2.5-15.5h7.5c-1.6 4.9-2.5 10.2-2.5 15.5 0 8.6 2.8 17.8 6.4 22.8 0.7 1 0.8 1.9 0.6 2.9 -0.7 3.2-2.1 9.9-2.4 11.3C93.9 160.2 93.8 160.4 93.8 160.6M91.8 107.5h-7.5c1.5-4.6 3.7-8.9 6.5-12.7h7.5C95.4 98.5 93.3 102.9 91.8 107.5M98.2 94.8h-7.5c6.7-9.1 17-15.2 30.1-15.2h7.5C115.2 79.6 104.9 85.7 98.2 94.8"/>
      </g>
    </g>
    <g class="st0">
      <defs>
        <path class="st0" d="M97.2 218.1h-7.5c-32.2-14.6-55-50.8-55-93.1 0-55.2 38.8-100 86.6-100l7.5 0c-47.8 0-86.6 44.8-86.6 100C42.1 167.4 65 203.6 97.2 218.1z"/>
      </defs>
      <clipPath>
        <use xlink:href="#XMLID_66_"/>
      </clipPath>
      <g class="st10">
        <path class="st4" d="M97.2 218.1h-7.5c-32.2-14.6-55-50.8-55-93.1 0-12.4 2-24.3 5.6-35.3h7.5c-3.6 11-5.6 22.9-5.6 35.3C42.1 167.4 65 203.6 97.2 218.1M47.7 89.7h-7.5c3.6-10.9 8.7-20.8 15.1-29.5h7.5C56.4 68.8 51.3 78.8 47.7 89.7M62.8 60.2h-7.5C71.2 38.6 94.9 25 121.3 25h7.5C102.4 25 78.7 38.6 62.8 60.2"/>
      </g>
    </g>
    <path class="st11" d="M128.8 25c47.8 0 86.6 44.8 86.6 100 0 55.2-38.8 100-86.6 100 -8.9 0-17.5-1.6-25.7-4.5 3.5-6.6 8.8-17.5 10.8-26.2l5.4-23.8c2.8 6.2 11.1 11.5 19.8 11.5 26.1 0 45-27.7 45-62.2 0-33-23.4-57.7-53.4-57.7 -37.4 0-57.2 28.9-57.2 60.5 0 14.7 6.8 32.9 17.6 38.7 0.6 0.3 1 0.5 1.4 0.5 0.8 0 1.2-0.6 1.5-1.8 0.3-1.4 1.8-8.2 2.4-11.3 0.2-1 0.1-1.9-0.6-2.9 -3.6-5-6.4-14.2-6.4-22.8 0-22.1 14.4-43.4 39.1-43.4 21.3 0 36.2 16.7 36.2 40.7 0 27-11.8 45.8-27.2 45.8 -8.5 0-14.9-8.1-12.8-18.1 2.4-11.9 7.2-24.7 7.2-33.3 0-7.7-3.6-14.1-11-14.1 -8.7 0-15.7 10.4-15.7 24.3 0 8.9 2.5 14.6 2.6 14.8 -0.4 2.1-8.6 41.9-10.2 49.7 -1.7 8.6-1.1 20.8-0.3 28.7 -32.2-14.6-55-50.8-55-93.1C42.1 69.8 80.9 25 128.8 25z"/>
  </g>
</svg>
