<svg xmlns="http://www.w3.org/2000/svg" xmlns:xlink="http://www.w3.org/1999/xlink" version="1.1" x="0" y="0" viewBox="0 0 250 250" xml:space="preserve">
  <style type="text/css">
    
	.st0{enable-background:new    ;}
	.st1{clip-path:url(#XMLID_10_);enable-background:new    ;}
	.st2{fill:#1A5270;}
	.st3{clip-path:url(#XMLID_11_);enable-background:new    ;}
	.st4{fill:#1D5776;}
	.st5{fill:#1C5473;}
	.st6{clip-path:url(#XMLID_12_);enable-background:new    ;}
	.st7{clip-path:url(#XMLID_13_);enable-background:new    ;}
	.st8{clip-path:url(#XMLID_14_);enable-background:new    ;}
	.st9{clip-path:url(#XMLID_15_);enable-background:new    ;}
	.st10{clip-path:url(#XMLID_16_);enable-background:new    ;}
	.st11{clip-path:url(#XMLID_17_);enable-background:new    ;}
	.st12{fill:#19506E;}
	.st13{clip-path:url(#XMLID_18_);enable-background:new    ;}
	.st14{clip-path:url(#XMLID_19_);enable-background:new    ;}
	.st15{clip-path:url(#XMLID_20_);enable-background:new    ;}
	.st16{clip-path:url(#XMLID_21_);enable-background:new    ;}
	.st17{fill:#3481AC;}
	.st18{clip-path:url(#XMLID_22_);enable-background:new    ;}
	.st19{clip-path:url(#XMLID_23_);enable-background:new    ;}
	.st20{clip-path:url(#XMLID_24_);enable-background:new    ;}
	.st21{clip-path:url(#XMLID_25_);enable-background:new    ;}
	.st22{clip-path:url(#XMLID_26_);enable-background:new    ;}
	.st23{clip-path:url(#XMLID_27_);enable-background:new    ;}
	.st24{clip-path:url(#XMLID_28_);enable-background:new    ;}

  </style>
  <g class="st0">
    <g class="st0">
      <defs>
        <path class="st0" d="M198.7 141.6l-7.5 0c-0.2-0.7-0.3-1.1-0.3-1.6h7.5C198.4 140.5 198.5 140.9 198.7 141.6z"/>
      </defs>
      <clipPath>
        <use xlink:href="#XMLID_290_"/>
      </clipPath>
      <g class="st1">
        <path class="st2" d="M198.7 141.6l-7.5 0c-0.2-0.7-0.3-1.1-0.3-1.6h7.5C198.4 140.5 198.5 140.9 198.7 141.6"/>
      </g>
    </g>
    <g class="st0">
      <defs>
        <path class="st0" d="M203.7 134.8l-7.5 0c3.2-2.7 5.2-6.9 5.2-11.5 0-8-5.9-14.5-13.1-14.5l7.5 0c7.2 0 13.1 6.5 13.1 14.5C208.9 127.9 206.9 132.1 203.7 134.8z"/>
      </defs>
      <clipPath>
        <use xlink:href="#XMLID_286_"/>
      </clipPath>
      <g class="st3">
        <path class="st4" d="M203.7 134.8h-7.5c0.9-0.7 1.6-1.5 2.3-2.4h7.5C205.3 133.3 204.5 134.1 203.7 134.8M206 132.4h-7.5c0.9-1.2 1.6-2.6 2.1-4.2h7.5C207.6 129.7 206.9 131.1 206 132.4M208.1 128.2h-7.5c0.5-1.6 0.8-3.2 0.8-5 0-8-5.9-14.5-13.1-14.5h7.5c7.2 0 13.1 6.5 13.1 14.5C208.9 125 208.6 126.6 208.1 128.2"/>
      </g>
    </g>
    <g class="st0">
      <defs>
        <path class="st0" d="M187.5 73.5H180c5.3 0 9.7-4.8 9.7-10.7s-4.3-10.7-9.7-10.7l7.5 0c5.3 0 9.7 4.8 9.7 10.7S192.8 73.5 187.5 73.5z"/>
      </defs>
      <clipPath>
        <use xlink:href="#XMLID_280_"/>
      </clipPath>
      <g class="st6">
        <path class="st4" d="M187.5 73.5l-7.5 0c3 0 5.7-1.5 7.5-3.9h7.5C193.2 71.9 190.5 73.5 187.5 73.5M195 69.5h-7.5c0.7-0.9 1.2-2 1.6-3.1h7.5C196.2 67.6 195.7 68.6 195 69.5M196.6 66.4h-7.5c0.4-1.1 0.6-2.3 0.6-3.6 0-5.9-4.3-10.7-9.7-10.7h7.5c5.3 0 9.7 4.8 9.7 10.7C197.2 64.1 197 65.3 196.6 66.4"/>
      </g>
    </g>
    <g class="st0">
      <defs>
        <path class="st0" d="M182.4 107.3l-7.5 0c3.6-3.7 8.3-5.7 13.3-5.7l7.5 0C190.7 101.6 186 103.7 182.4 107.3z"/>
      </defs>
      <clipPath>
        <use xlink:href="#XMLID_274_"/>
      </clipPath>
      <g class="st7">
        <path class="st4" d="M182.4 107.3h-7.5c3.6-3.7 8.3-5.7 13.3-5.7h7.5C190.7 101.6 186 103.7 182.4 107.3"/>
      </g>
    </g>
    <g class="st0">
      <defs>
        <path class="st0" d="M198.4 140h-7.5c-2.2-9.4-8.1-17.9-16.6-24.7l7.5 0C190.3 122.2 196.2 130.7 198.4 140z"/>
      </defs>
      <clipPath>
        <use xlink:href="#XMLID_270_"/>
      </clipPath>
      <g class="st8">
        <path class="st2" d="M198.4 140h-7.5c-2.2-9.4-8.1-17.9-16.6-24.7h7.5C190.3 122.2 196.2 130.7 198.4 140"/>
      </g>
    </g>
    <g class="st0">
      <defs>
        <path class="st0" d="M181.8 115.3l-7.5 0c-0.3-0.1-0.6-0.3-0.9-0.6 -0.2-0.2-0.3-0.3-0.5-0.5h7.5c0.2 0.2 0.3 0.4 0.5 0.5C181.2 115 181.5 115.2 181.8 115.3z"/>
      </defs>
      <clipPath>
        <use xlink:href="#XMLID_266_"/>
      </clipPath>
      <g class="st9">
        <path class="st2" d="M181.8 115.3h-7.5c-0.3-0.1-0.6-0.3-0.9-0.6 -0.2-0.2-0.3-0.3-0.5-0.5h7.5c0.2 0.2 0.3 0.4 0.5 0.5C181.2 115 181.5 115.2 181.8 115.3"/>
      </g>
    </g>
    <g class="st0">
      <defs>
        <path class="st0" d="M172.7 55.8l-7.5 0c2.5-6.4 8.2-10.8 14.9-10.8l7.5 0C180.9 45 175.1 49.5 172.7 55.8z"/>
      </defs>
      <clipPath>
        <use xlink:href="#XMLID_262_"/>
      </clipPath>
      <g class="st10">
        <path class="st5" d="M172.7 55.8h-7.5c0.6-1.5 1.4-3 2.3-4.3h7.5C174 52.9 173.3 54.3 172.7 55.8M175 51.6h-7.5c3-4 7.5-6.6 12.5-6.6h7.5C182.5 45 178 47.6 175 51.6"/>
      </g>
    </g>
    <g class="st0">
      <defs>
        <path class="st0" d="M187.5 80.6l-7.5 0c-8.9 0-16.1-8-16.2-17.8l7.5 0C171.4 72.6 178.6 80.6 187.5 80.6z"/>
      </defs>
      <clipPath>
        <use xlink:href="#XMLID_257_"/>
      </clipPath>
      <g class="st11">
        <path class="st2" d="M187.5 80.6H180c-8.9 0-16.1-8-16.2-17.8h7.5C171.4 72.6 178.6 80.6 187.5 80.6"/>
      </g>
    </g>
    <polygon class="st12" points="171.4 62.8 163.9 62.8 136 55.6 143.5 55.6 "/>
    <g class="st0">
      <defs>
        <path class="st0" d="M155 150.8h-7.5c-6.6 0-12.1-5.9-12.1-13.1 0-7.3 5.5-13.4 12.1-13.4l7.5 0c-6.6 0-12.1 6.1-12.1 13.4C142.8 144.9 148.4 150.8 155 150.8z"/>
      </defs>
      <clipPath>
        <use xlink:href="#XMLID_251_"/>
      </clipPath>
      <g class="st13">
        <path class="st2" d="M155 150.8h-7.5c-6.6 0-12.1-5.9-12.1-13.1 0-1.5 0.2-3 0.7-4.4h7.5c-0.5 1.4-0.7 2.9-0.7 4.4C142.8 144.9 148.4 150.8 155 150.8M143.5 133.3H136c0.5-1.4 1.2-2.8 2-3.9h7.5C144.7 130.5 144 131.8 143.5 133.3M145.6 129.3h-7.5c2.2-3 5.6-5 9.4-5h7.5C151.2 124.3 147.8 126.3 145.6 129.3"/>
      </g>
    </g>
    <g class="st0">
      <defs>
        <path class="st0" d="M128.7 177.6h-7.5c11.2 0 18.8-2.4 23.3-7.4 0.6-0.7 1.5-1 2.3-1l7.5 0c-0.8 0-1.7 0.3-2.3 1C147.5 175.1 139.9 177.6 128.7 177.6z"/>
      </defs>
      <clipPath>
        <use xlink:href="#XMLID_245_"/>
      </clipPath>
      <g class="st14">
        <path class="st4" d="M128.7 177.6h-7.5c11.2 0 18.8-2.4 23.3-7.4 0.6-0.7 1.5-1 2.3-1h7.5c-0.8 0-1.7 0.3-2.3 1C147.5 175.1 139.9 177.6 128.7 177.6"/>
      </g>
    </g>
    <g class="st0">
      <defs>
        <path class="st0" d="M128.4 197.8l-7.5 0c39.1 0 70.9-22.3 70.9-49.8 0-2.2-0.2-4.3-0.6-6.4l7.5 0c0.4 2.1 0.6 4.3 0.6 6.4C199.3 175.5 167.5 197.8 128.4 197.8z"/>
      </defs>
      <clipPath>
        <use xlink:href="#XMLID_241_"/>
      </clipPath>
      <g class="st15">
        <path class="st4" d="M128.4 197.8h-7.5c27.4 0 51.2-11 63-27h7.5C179.6 186.9 155.8 197.8 128.4 197.8M191.4 170.9h-7.5c2.7-3.7 4.8-7.6 6.1-11.7h7.5C196.2 163.3 194.1 167.2 191.4 170.9M197.5 159.2l-7.5 0c1.2-3.6 1.8-7.3 1.8-11.1 0-2.2-0.2-4.3-0.6-6.4l7.5 0c0.4 2.1 0.6 4.3 0.6 6.4C199.3 151.9 198.7 155.6 197.5 159.2"/>
      </g>
    </g>
    <g class="st0">
      <defs>
        <path class="st0" d="M180.4 114.3h-7.5c-13-9.8-31.5-16-52-16l7.5 0C148.9 98.3 167.5 104.4 180.4 114.3z"/>
      </defs>
      <clipPath>
        <use xlink:href="#XMLID_235_"/>
      </clipPath>
      <g class="st16">
        <path class="st2" d="M180.4 114.3h-7.5c-13-9.8-31.5-16-52-16l7.5 0C148.9 98.3 167.5 104.4 180.4 114.3"/>
      </g>
    </g>
    <path class="st17" d="M154.4 169.1c0.8 0 1.7 0.3 2.3 1 1.3 1.4 1.3 3.7 0 5.1 -5.8 6.4-15 9.5-27.9 9.5 -12.9 0-22.1-3.1-27.9-9.6 -1.3-1.4-1.3-3.6 0-5 0.6-0.7 1.5-1 2.3-1 0.8 0 1.7 0.3 2.3 1 4.6 5 12.2 7.5 23.3 7.5 11.2 0 18.8-2.4 23.3-7.4C152.7 169.4 153.5 169.1 154.4 169.1z"/>
    <g class="st0">
      <defs>
        <path class="st0" d="M128.7 184.7h-7.5c-12.9 0-22.1-3.1-27.9-9.6 -1.3-1.4-1.3-3.6 0-5 0.6-0.7 1.5-1 2.3-1l7.5 0c-0.8 0-1.7 0.3-2.3 1 -1.3 1.4-1.3 3.7 0 5C106.6 181.6 115.8 184.7 128.7 184.7z"/>
      </defs>
      <clipPath>
        <use xlink:href="#XMLID_229_"/>
      </clipPath>
      <g class="st18">
        <path class="st2" d="M128.7 184.7h-7.5c-12.9 0-22.1-3.1-27.9-9.6 -0.9-1-1.2-2.5-0.8-3.7h7.5c-0.4 1.3-0.2 2.7 0.8 3.7C106.6 181.6 115.8 184.7 128.7 184.7M100.1 171.4h-7.5c0.1-0.4 0.3-0.7 0.5-1h7.5C100.4 170.7 100.2 171 100.1 171.4M100.6 170.4h-7.5c0.1-0.1 0.1-0.2 0.2-0.3 0.6-0.7 1.5-1 2.3-1h7.5c-0.8 0-1.7 0.3-2.3 1C100.7 170.2 100.7 170.3 100.6 170.4"/>
      </g>
    </g>
    <g class="st0">
      <defs>
        <path class="st0" d="M102.7 150.8h-7.5c-6.6 0-12.1-5.9-12.1-13.1 0-7.3 5.5-13.4 12.1-13.4l7.5 0c-6.6 0-12.1 6.1-12.1 13.4C90.6 144.9 96.1 150.8 102.7 150.8z"/>
      </defs>
      <clipPath>
        <use xlink:href="#XMLID_223_"/>
      </clipPath>
      <g class="st19">
        <path class="st2" d="M102.7 150.8h-7.5c-6.6 0-12.1-5.9-12.1-13.1 0-1.5 0.2-3 0.7-4.4h7.5c-0.5 1.4-0.7 2.9-0.7 4.4C90.6 144.9 96.1 150.8 102.7 150.8M91.3 133.3h-7.5c0.5-1.4 1.2-2.8 2-3.9h7.5C92.4 130.5 91.7 131.8 91.3 133.3M93.3 129.3h-7.5c2.2-3 5.6-5 9.4-5h7.5C98.9 124.3 95.5 126.3 93.3 129.3"/>
      </g>
    </g>
    <g class="st0">
      <defs>
        <path class="st0" d="M74.8 107h-7.5c13.4-9.5 31.5-15.5 51.4-15.9l7.5 0C106.3 91.6 88.2 97.5 74.8 107z"/>
      </defs>
      <clipPath>
        <use xlink:href="#XMLID_217_"/>
      </clipPath>
      <g class="st20">
        <path class="st4" d="M74.8 107l-7.5 0c13.4-9.5 31.5-15.5 51.4-15.9h7.5C106.3 91.6 88.2 97.5 74.8 107"/>
      </g>
    </g>
    <g class="st0">
      <defs>
        <path class="st0" d="M69.3 111.4l-7.5 0c-2.2-1.7-4.8-2.6-7.5-2.6l7.5 0C64.5 108.8 67.1 109.7 69.3 111.4z"/>
      </defs>
      <clipPath>
        <use xlink:href="#XMLID_213_"/>
      </clipPath>
      <g class="st21">
        <path class="st2" d="M69.3 111.4h-7.5c-2.2-1.7-4.8-2.6-7.5-2.6h7.5C64.5 108.8 67.1 109.7 69.3 111.4"/>
      </g>
    </g>
    <g class="st0">
      <defs>
        <path class="st0" d="M53.3 134.3l-7.5 0c2.9-8.6 8.5-16.4 16-23l7.5 0C61.7 117.9 56.2 125.7 53.3 134.3z"/>
      </defs>
      <clipPath>
        <use xlink:href="#XMLID_209_"/>
      </clipPath>
      <g class="st22">
        <path class="st5" d="M53.3 134.3h-7.5c1.6-4.7 4-9.2 7-13.3h7.5C57.3 125.1 54.9 129.6 53.3 134.3M60.3 121h-7.5c2.5-3.4 5.5-6.7 9-9.6h7.5C65.9 114.3 62.9 117.5 60.3 121"/>
      </g>
    </g>
    <g class="st0">
      <defs>
        <path class="st0" d="M51.5 141.7l-7.5 0c-5.8-3.9-9.3-10.9-9.3-18.4 0-11.9 8.8-21.6 19.6-21.6l7.5 0c-10.8 0-19.6 9.7-19.6 21.6C42.1 130.8 45.7 137.7 51.5 141.7z"/>
      </defs>
      <clipPath>
        <use xlink:href="#XMLID_204_"/>
      </clipPath>
      <g class="st23">
        <path class="st2" d="M51.5 141.7H44c-5.8-3.9-9.3-10.9-9.3-18.4 0-2.6 0.4-5 1.2-7.3h7.5c-0.7 2.3-1.2 4.7-1.2 7.3C42.1 130.8 45.7 137.7 51.5 141.7M43.3 115.9h-7.5c0.8-2.3 1.9-4.4 3.2-6.3h7.5C45.2 111.5 44.1 113.6 43.3 115.9M46.5 109.6H39c3.6-4.9 9.1-8 15.2-8h7.5C55.6 101.6 50.1 104.7 46.5 109.6"/>
      </g>
    </g>
    <path class="st17" d="M215.4 123.2c0 7.9-3.8 15-10 18.8 0.3 2 0.4 4 0.4 6 0 31.4-34.8 56.9-77.4 56.9C85.7 205 51 179.5 51 148.1c0-2.2 0.2-4.3 0.5-6.4 -5.8-3.9-9.3-10.9-9.3-18.4 0-11.9 8.8-21.6 19.6-21.6 4.8 0 9.4 2 13 5.4 13.4-9.5 31.5-15.5 51.4-15.9l13.1-44 2.9 0.7 30.5 7.9c2.5-6.4 8.2-10.8 14.9-10.8 8.9 0 16.1 8 16.1 17.8 0 9.8-7.2 17.8-16.1 17.8 -8.9 0-16.1-8-16.2-17.8l-27.8-7.2L133 91.2c19.2 0.8 36.5 6.8 49.5 16.1 3.6-3.7 8.3-5.7 13.3-5.7C206.6 101.6 215.4 111.3 215.4 123.2zM128.4 197.8c39.1 0 70.9-22.3 70.9-49.8 0-2.2-0.2-4.3-0.6-6.4 -0.2-0.7-0.3-1.1-0.3-1.6 -2.2-9.4-8.1-17.9-16.6-24.7 -0.3-0.1-0.6-0.3-0.9-0.6 -0.2-0.2-0.3-0.3-0.5-0.5 -13-9.8-31.5-16-52-16 -20.4 0-38.7 6-51.7 15.7 -0.1 0.1-0.2 0.3-0.4 0.4 -0.3 0.3-0.6 0.5-0.9 0.6 -8.7 6.9-14.8 15.4-17 24.9 0 0.4-0.1 0.9-0.3 1.4 -0.5 2.3-0.7 4.6-0.7 6.9C57.4 175.5 89.3 197.8 128.4 197.8M203.7 134.8c3.2-2.7 5.2-6.9 5.2-11.5 0-8-5.9-14.5-13.1-14.5 -2.9 0-5.6 1-7.9 2.9C195.4 118.3 200.9 126.1 203.7 134.8M48.6 123.2c0 4.3 1.7 8.4 4.7 11.1 2.9-8.6 8.5-16.4 16-22.9 -2.2-1.7-4.8-2.6-7.5-2.6C54.5 108.8 48.6 115.3 48.6 123.2M187.5 52.1c-5.3 0-9.7 4.8-9.7 10.7 0 5.9 4.3 10.7 9.7 10.7 5.3 0 9.7-4.8 9.7-10.7S192.9 52.1 187.5 52.1"/>
    <path class="st17" d="M155 124.3c6.6 0 11.9 6.1 11.9 13.4 0 7.3-5.3 13.1-11.9 13.1 -6.6 0-12.1-5.9-12.1-13.1C142.8 130.4 148.4 124.3 155 124.3z"/>
    <polygon class="st4" points="126.2 91.2 118.7 91.2 131.7 47.2 139.2 47.2 "/>
    <path class="st17" d="M114.6 137.7c0 7.3-5.3 13.1-11.9 13.1 -6.6 0-12.1-5.9-12.1-13.1 0-7.3 5.5-13.4 12.1-13.4C109.3 124.3 114.6 130.4 114.6 137.7z"/>
    <g class="st0">
      <defs>
        <path class="st0" d="M128.4 205h-7.5c-42.7 0-77.4-25.5-77.4-56.9 0-2.2 0.2-4.3 0.5-6.4l7.5 0c-0.3 2.1-0.5 4.3-0.5 6.4C51 179.5 85.7 205 128.4 205z"/>
      </defs>
      <clipPath>
        <use xlink:href="#XMLID_74_"/>
      </clipPath>
      <g class="st24">
        <path class="st2" d="M128.4 205h-7.5c-42.7 0-77.4-25.5-77.4-56.9 0-2.2 0.2-4.3 0.5-6.4h7.5c-0.3 2.1-0.5 4.3-0.5 6.4C51 179.5 85.7 205 128.4 205"/>
      </g>
    </g>
  </g>
</svg>
