<svg xmlns="http://www.w3.org/2000/svg" xmlns:xlink="http://www.w3.org/1999/xlink" version="1.1" x="0" y="0" viewBox="0 0 250 250" xml:space="preserve">
  <style type="text/css">
    
	.st0{enable-background:new    ;}
	.st1{clip-path:url(#XMLID_18_);enable-background:new    ;}
	.st2{fill:#1C5776;}
	.st3{clip-path:url(#XMLID_19_);enable-background:new    ;}
	.st4{fill:#195270;}
	.st5{clip-path:url(#XMLID_20_);enable-background:new    ;}
	.st6{fill:#1A5473;}
	.st7{fill:#1A5472;}
	.st8{fill:#3281AC;}
	.st9{clip-path:url(#XMLID_21_);enable-background:new    ;}
	.st10{clip-path:url(#XMLID_22_);enable-background:new    ;}
	.st11{fill:#1A5372;}
	.st12{clip-path:url(#XMLID_23_);enable-background:new    ;}
	.st13{clip-path:url(#XMLID_24_);enable-background:new    ;}
	.st14{clip-path:url(#XMLID_25_);enable-background:new    ;}
	.st15{clip-path:url(#XMLID_26_);enable-background:new    ;}
	.st16{clip-path:url(#XMLID_27_);enable-background:new    ;}
	.st17{clip-path:url(#XMLID_28_);enable-background:new    ;}
	.st18{clip-path:url(#XMLID_29_);enable-background:new    ;}
	.st19{clip-path:url(#XMLID_30_);enable-background:new    ;}
	.st20{clip-path:url(#XMLID_31_);enable-background:new    ;}
	.st21{clip-path:url(#XMLID_32_);enable-background:new    ;}
	.st22{clip-path:url(#XMLID_33_);enable-background:new    ;}
	.st23{clip-path:url(#XMLID_34_);enable-background:new    ;}
	.st24{clip-path:url(#XMLID_35_);enable-background:new    ;}
	.st25{fill:#17506E;}
	.st26{clip-path:url(#XMLID_36_);enable-background:new    ;}
	.st27{clip-path:url(#XMLID_37_);enable-background:new    ;}
	.st28{clip-path:url(#XMLID_38_);enable-background:new    ;}
	.st29{clip-path:url(#XMLID_39_);enable-background:new    ;}
	.st30{clip-path:url(#XMLID_40_);enable-background:new    ;}
	.st31{fill:#195372;}
	.st32{clip-path:url(#XMLID_41_);enable-background:new    ;}
	.st33{clip-path:url(#XMLID_42_);enable-background:new    ;}
	.st34{clip-path:url(#XMLID_43_);enable-background:new    ;}
	.st35{clip-path:url(#XMLID_44_);enable-background:new    ;}
	.st36{fill:#195371;}
	.st37{clip-path:url(#XMLID_45_);enable-background:new    ;}
	.st38{clip-path:url(#XMLID_46_);enable-background:new    ;}
	.st39{clip-path:url(#XMLID_47_);enable-background:new    ;}
	.st40{clip-path:url(#XMLID_48_);enable-background:new    ;}

  </style>
  <g class="st0">
    <g class="st0">
      <defs>
        <path class="st0" d="M185.8 120.1h-7.5c2.5-1.6 5.3-2.4 8.2-2.4h7.5C191.1 117.7 188.3 118.5 185.8 120.1z"/>
      </defs>
      <clipPath>
        <use xlink:href="#XMLID_657_"/>
      </clipPath>
      <g class="st1">
        <path class="st2" d="M185.8 120.1h-7.5c2.5-1.6 5.3-2.4 8.2-2.4h7.5C191.1 117.7 188.3 118.5 185.8 120.1"/>
      </g>
    </g>
    <g class="st0">
      <defs>
        <path class="st0" d="M135 179.9h-7.5c-1.3-0.2-2.3-1.7-2.3-3.6h7.5C132.7 178.2 133.7 179.7 135 179.9z"/>
      </defs>
      <clipPath>
        <use xlink:href="#XMLID_653_"/>
      </clipPath>
      <g class="st3">
        <path class="st4" d="M135 179.9h-7.5c-1.3-0.2-2.3-1.7-2.3-3.6h7.5C132.7 178.2 133.7 179.7 135 179.9"/>
      </g>
    </g>
    <g class="st0">
      <defs>
        <path class="st0" d="M132.7 77.4h-7.5c0-1.8 0.4-2.7 2.1-3.7 4.1-2.3 8.8-3.7 13.6-3.7l7.5 0c-4.8 0-9.5 1.4-13.6 3.7C133.1 74.7 132.7 75.6 132.7 77.4z"/>
      </defs>
      <clipPath>
        <use xlink:href="#XMLID_649_"/>
      </clipPath>
      <g class="st5">
        <path class="st4" d="M132.7 77.4h-7.5c0-0.7 0.1-1.2 0.2-1.7h7.5C132.8 76.2 132.7 76.7 132.7 77.4M132.9 75.7h-7.5c0.1-0.3 0.2-0.6 0.4-0.8h7.5C133.1 75.1 133 75.4 132.9 75.7M133.3 74.9h-7.5c0.3-0.4 0.8-0.8 1.4-1.2 4.1-2.3 8.8-3.7 13.6-3.7h7.5c-4.8 0-9.5 1.4-13.6 3.7C134.1 74.1 133.6 74.5 133.3 74.9"/>
      </g>
    </g>
    <rect x="125.2" y="77.4" class="st7" width="7.5" height="98.9"/>
    <path class="st8" d="M194.1 117.7c11.8 0 21.3 14 21.3 31.2 0 17.2-9.5 31-21.3 31H135c-1.3-0.2-2.3-1.7-2.3-3.6V77.4c0-1.8 0.4-2.7 2.1-3.7 4.1-2.3 8.8-3.7 13.6-3.7 19.6 0 35.7 22 37.5 50.1C188.3 118.5 191.1 117.7 194.1 117.7z"/>
  </g>
  <g class="st0">
    <g class="st0">
      <defs>
        <path class="st0" d="M128.3 179.8l-7.5 0c-1.3 0-2.3-1.5-2.3-3.4h7.5C126 178.2 127.1 179.8 128.3 179.8z"/>
      </defs>
      <clipPath>
        <use xlink:href="#XMLID_638_"/>
      </clipPath>
      <g class="st9">
        <path class="st4" d="M128.3 179.8h-7.5c-1.3 0-2.3-1.5-2.3-3.4h7.5C126 178.2 127.1 179.8 128.3 179.8"/>
      </g>
    </g>
    <rect x="118.5" y="80.7" class="st7" width="7.5" height="0.4"/>
    <g class="st0">
      <defs>
        <path class="st0" d="M126 80.7h-7.5c0-1.1 0.3-2 0.9-2.6 0.4-0.5 0.9-0.8 1.5-0.8h7.5c-0.5 0-1.1 0.3-1.5 0.8C126.3 78.7 126 79.6 126 80.7z"/>
      </defs>
      <clipPath>
        <use xlink:href="#XMLID_632_"/>
      </clipPath>
      <g class="st10">
        <path class="st4" d="M126 80.7h-7.5c0-0.5 0.1-1 0.2-1.4h7.5C126.1 79.7 126 80.2 126 80.7M126.2 79.3h-7.5c0.1-0.4 0.3-0.8 0.5-1.1l7.5 0C126.5 78.5 126.4 78.8 126.2 79.3M126.8 78.2l-7.5 0c0 0 0.1-0.1 0.1-0.1 0.4-0.5 0.9-0.8 1.5-0.8h7.5c-0.5 0-1.1 0.3-1.5 0.8C126.8 78.1 126.8 78.1 126.8 78.2"/>
      </g>
    </g>
    <polygon class="st11" points="126 176.4 118.5 176.4 118 163.8 125.5 163.8 "/>
    <polygon class="st7" points="125 150.9 117.5 150.9 118.5 81.1 126 81.1 "/>
    <polygon class="st11" points="125.5 163.8 118 163.8 117.5 150.9 125 150.9 "/>
    <path class="st8" d="M129.5 77.8c0.7 0.6 1.1 1.7 1.1 2.9l1 70.2 -1 25.5c0 1.9-1.1 3.4-2.3 3.4 -1.3 0-2.3-1.5-2.3-3.4l-0.5-12.6 -0.5-12.9 1-69.8v-0.4c0-1.1 0.3-2 0.9-2.6 0.4-0.5 0.9-0.8 1.5-0.8C128.8 77.3 129.2 77.5 129.5 77.8z"/>
  </g>
  <g class="st0">
    <g class="st0">
      <defs>
        <path class="st0" d="M121.1 179.9l-7.5 0c-0.7 0-1.3-0.5-1.7-1.2h7.5C119.8 179.5 120.4 179.9 121.1 179.9z"/>
      </defs>
      <clipPath>
        <use xlink:href="#XMLID_617_"/>
      </clipPath>
      <g class="st12">
        <path class="st4" d="M121.1 179.9h-7.5c-0.7 0-1.3-0.5-1.7-1.2h7.5C119.8 179.5 120.4 179.9 121.1 179.9"/>
      </g>
    </g>
    <g class="st0">
      <defs>
        <path class="st0" d="M119.4 178.7h-7.5c-0.3-0.5-0.5-1.2-0.5-1.9h7.5C118.9 177.5 119.1 178.2 119.4 178.7z"/>
      </defs>
      <clipPath>
        <use xlink:href="#XMLID_613_"/>
      </clipPath>
      <g class="st13">
        <path class="st4" d="M119.4 178.7h-7.5c-0.3-0.5-0.5-1.2-0.5-1.9h7.5C118.9 177.5 119.1 178.2 119.4 178.7"/>
      </g>
    </g>
    <rect x="111.4" y="86.5" class="st7" width="7.5" height="0.6"/>
    <g class="st0">
      <defs>
        <path class="st0" d="M118.9 86.5h-7.5c0-1.1 0.4-2.1 1-2.7 0.3-0.3 0.8-0.5 1.2-0.5l7.5 0c-0.4 0-0.8 0.2-1.2 0.5C119.3 84.4 118.9 85.4 118.9 86.5z"/>
      </defs>
      <clipPath>
        <use xlink:href="#XMLID_607_"/>
      </clipPath>
      <g class="st14">
        <path class="st4" d="M118.9 86.5h-7.5c0-0.5 0.1-0.9 0.2-1.4h7.5C118.9 85.6 118.9 86 118.9 86.5M119.1 85.2h-7.5c0.1-0.4 0.3-0.7 0.5-1h7.5C119.4 84.4 119.2 84.8 119.1 85.2M119.6 84.2h-7.5c0.1-0.1 0.2-0.2 0.3-0.3 0.3-0.3 0.8-0.5 1.2-0.5h7.5c-0.4 0-0.8 0.2-1.2 0.5C119.8 83.9 119.7 84 119.6 84.2"/>
      </g>
    </g>
    <polygon class="st7" points="118 150.9 110.5 150.9 111.4 87.1 118.9 87.1 "/>
    <polygon class="st11" points="118.9 176.8 111.4 176.8 110.5 150.9 118 150.9 "/>
    <path class="st8" d="M122.3 83.9c0.6 0.6 1 1.5 1 2.6l0.9 64.3 -0.8 23.3 -0.1 2.6c0 0.9-0.2 1.7-0.6 2.3 -0.4 0.6-0.9 1-1.5 1 -0.7 0-1.3-0.5-1.7-1.2 -0.3-0.5-0.5-1.2-0.5-1.9l-0.8-26 0.8-63.7v-0.6c0-1.1 0.4-2.1 1-2.7 0.3-0.3 0.8-0.5 1.2-0.5C121.5 83.3 121.9 83.6 122.3 83.9z"/>
  </g>
  <g class="st0">
    <g class="st0">
      <defs>
        <path class="st0" d="M113.8 179.8h-7.5c-1.1 0-2-1.3-2.1-3h7.5C111.7 178.5 112.6 179.8 113.8 179.8z"/>
      </defs>
      <clipPath>
        <use xlink:href="#XMLID_594_"/>
      </clipPath>
      <g class="st15">
        <path class="st4" d="M113.8 179.8h-7.5c-1.1 0-2-1.3-2.1-3h7.5C111.7 178.5 112.6 179.8 113.8 179.8"/>
      </g>
    </g>
    <g class="st0">
      <defs>
        <path class="st0" d="M111.7 96.8l-7.5 0c0-1.7 0.9-3 2.1-3l7.5 0C112.6 93.8 111.7 95.1 111.7 96.8z"/>
      </defs>
      <clipPath>
        <use xlink:href="#XMLID_590_"/>
      </clipPath>
      <g class="st16">
        <path class="st4" d="M111.7 96.8l-7.5 0c0-0.5 0.1-0.9 0.2-1.3h7.5C111.8 95.9 111.7 96.3 111.7 96.8M111.9 95.5h-7.5c0.1-0.4 0.3-0.7 0.5-0.9h7.5C112.2 94.8 112 95.2 111.9 95.5M112.4 94.6h-7.5c0.4-0.5 0.8-0.8 1.4-0.8h7.5C113.2 93.8 112.7 94.1 112.4 94.6"/>
      </g>
    </g>
    <polygon class="st7" points="110.8 150.9 103.3 150.9 104.2 96.8 111.7 96.8 "/>
    <polygon class="st11" points="111.7 176.9 104.2 176.9 103.3 150.9 110.8 150.9 "/>
    <path class="st8" d="M113.8 93.8c1.1 0 2 1.3 2.1 3l1 54.1 -1 26c0 1.7-0.9 3-2.1 3 -1.1 0-2-1.3-2.1-3l-0.9-26 0.9-54.1C111.7 95.1 112.6 93.8 113.8 93.8z"/>
  </g>
  <g class="st0">
    <g class="st0">
      <defs>
        <path class="st0" d="M106.5 179.8H99c-1 0-1.9-1.2-1.9-2.7h7.5C104.6 178.6 105.5 179.8 106.5 179.8z"/>
      </defs>
      <clipPath>
        <use xlink:href="#XMLID_577_"/>
      </clipPath>
      <g class="st17">
        <path class="st4" d="M106.5 179.8H99c-1 0-1.9-1.2-1.9-2.7h7.5C104.6 178.6 105.5 179.8 106.5 179.8"/>
      </g>
    </g>
    <g class="st0">
      <defs>
        <path class="st0" d="M104.6 94.7h-7.5c0-1.5 0.8-2.8 1.9-2.8l7.5 0C105.5 92 104.6 93.2 104.6 94.7z"/>
      </defs>
      <clipPath>
        <use xlink:href="#XMLID_573_"/>
      </clipPath>
      <g class="st18">
        <path class="st4" d="M104.6 94.7h-7.5c0-0.4 0.1-0.8 0.2-1.2h7.5C104.7 93.9 104.6 94.3 104.6 94.7M104.8 93.5h-7.5c0.1-0.3 0.2-0.6 0.4-0.8h7.5C105 92.9 104.9 93.2 104.8 93.5M105.2 92.7h-7.5c0.3-0.5 0.8-0.7 1.3-0.7l7.5 0C106 92 105.6 92.3 105.2 92.7"/>
      </g>
    </g>
    <polygon class="st7" points="103.6 150.9 96.1 150.9 97.1 94.7 104.6 94.7 "/>
    <polygon class="st11" points="104.6 177.1 97.1 177.1 96.1 150.9 103.6 150.9 "/>
    <path class="st8" d="M106.5 92c1 0 1.9 1.2 1.9 2.8l1.1 56.1 -1.1 26.2c0 1.5-0.9 2.7-1.9 2.7 -1 0-1.9-1.2-1.9-2.7l-1-26.2 1-56.1C104.6 93.2 105.5 92 106.5 92z"/>
  </g>
  <g class="st0">
    <g class="st0">
      <defs>
        <path class="st0" d="M97.6 93.3h-7.5c0-1.4 0.8-2.5 1.7-2.5l7.5 0C98.4 90.7 97.6 91.8 97.6 93.3z"/>
      </defs>
      <clipPath>
        <use xlink:href="#XMLID_560_"/>
      </clipPath>
      <g class="st19">
        <path class="st4" d="M97.6 93.3h-7.5c0-0.4 0.1-0.8 0.2-1.1h7.5C97.6 92.5 97.6 92.9 97.6 93.3M97.8 92.2h-7.5c0.1-0.3 0.2-0.5 0.4-0.8h7.5C98 91.6 97.8 91.9 97.8 92.2M98.1 91.4h-7.5c0.3-0.4 0.7-0.7 1.2-0.7h7.5C98.9 90.7 98.4 91 98.1 91.4"/>
      </g>
    </g>
    <g class="st0">
      <defs>
        <path class="st0" d="M99.3 179.8h-7.5c-1 0-1.7-1.1-1.8-2.5h7.5C97.6 178.7 98.4 179.8 99.3 179.8z"/>
      </defs>
      <clipPath>
        <use xlink:href="#XMLID_554_"/>
      </clipPath>
      <g class="st20">
        <path class="st4" d="M99.3 179.8h-7.5c-1 0-1.7-1.1-1.8-2.5h7.5C97.6 178.7 98.4 179.8 99.3 179.8"/>
      </g>
    </g>
    <polygon class="st7" points="96.5 150.9 89 150.9 90.1 93.3 97.6 93.3 "/>
    <polygon class="st11" points="97.6 177.3 90.1 177.3 89 150.9 96.5 150.9 "/>
    <path class="st8" d="M101.1 93.3l1.2 57.6 -1.2 26.4c0 1.4-0.8 2.5-1.8 2.5 -1 0-1.7-1.1-1.8-2.5l-1.1-26.4 1.1-57.6c0-1.4 0.8-2.5 1.7-2.5C100.3 90.7 101 91.8 101.1 93.3z"/>
  </g>
  <g class="st0">
    <g class="st0">
      <defs>
        <path class="st0" d="M92.2 179.8h-7.5c-0.9 0-1.6-1-1.6-2.3h7.5C90.6 178.7 91.3 179.8 92.2 179.8z"/>
      </defs>
      <clipPath>
        <use xlink:href="#XMLID_543_"/>
      </clipPath>
      <g class="st21">
        <path class="st4" d="M92.2 179.8h-7.5c-0.9 0-1.6-1-1.6-2.3h7.5C90.6 178.7 91.3 179.8 92.2 179.8"/>
      </g>
    </g>
    <g class="st0">
      <defs>
        <path class="st0" d="M90.6 95.2h-7.5c0-1.3 0.7-2.3 1.6-2.3l7.5 0C91.3 92.8 90.6 93.8 90.6 95.2z"/>
      </defs>
      <clipPath>
        <use xlink:href="#XMLID_539_"/>
      </clipPath>
      <g class="st22">
        <path class="st4" d="M90.6 95.2h-7.5c0-0.4 0.1-0.7 0.2-1h7.5C90.6 94.5 90.6 94.8 90.6 95.2M90.7 94.2h-7.5c0.1-0.3 0.2-0.5 0.4-0.7h7.5C90.9 93.6 90.8 93.9 90.7 94.2M91.1 93.4h-7.5c0.3-0.4 0.7-0.6 1.1-0.6h7.5C91.7 92.8 91.4 93 91.1 93.4"/>
      </g>
    </g>
    <polygon class="st7" points="89.4 150.9 81.9 150.9 83.1 95.2 90.6 95.2 "/>
    <polygon class="st11" points="90.6 177.5 83.1 177.5 81.9 150.9 89.4 150.9 "/>
    <path class="st8" d="M92.2 92.8c0.9 0 1.6 1 1.6 2.3l1.3 55.7 -1.3 26.6c0 1.3-0.8 2.3-1.6 2.3 -0.9 0-1.6-1-1.6-2.3l-1.2-26.6 1.2-55.7C90.6 93.8 91.3 92.8 92.2 92.8z"/>
  </g>
  <g class="st0">
    <g class="st0">
      <defs>
        <path class="st0" d="M85 180h-7.5c-0.8 0-1.4-0.9-1.5-2.1h7.5C83.6 179.1 84.2 180 85 180z"/>
      </defs>
      <clipPath>
        <use xlink:href="#XMLID_526_"/>
      </clipPath>
      <g class="st23">
        <path class="st4" d="M85 180h-7.5c-0.8 0-1.4-0.9-1.5-2.1h7.5C83.6 179.1 84.2 180 85 180"/>
      </g>
    </g>
    <g class="st0">
      <defs>
        <path class="st0" d="M83.5 99.6H76c0-1.2 0.7-2.1 1.5-2.1H85C84.2 97.5 83.6 98.4 83.5 99.6z"/>
      </defs>
      <clipPath>
        <use xlink:href="#XMLID_522_"/>
      </clipPath>
      <g class="st24">
        <path class="st4" d="M83.5 99.6H76c0-0.3 0.1-0.6 0.1-0.9h7.5C83.6 99 83.5 99.3 83.5 99.6M83.7 98.7h-7.5c0.1-0.3 0.2-0.5 0.3-0.7H84C83.9 98.2 83.8 98.4 83.7 98.7M84 98h-7.5c0.3-0.4 0.6-0.6 1-0.6H85C84.6 97.5 84.3 97.7 84 98"/>
      </g>
    </g>
    <polygon class="st6" points="82.3 151 74.8 151 76 99.6 83.5 99.6 "/>
    <polygon class="st11" points="83.5 177.9 76 177.9 74.8 151 82.3 151 "/>
    <path class="st8" d="M85 97.5c0.8 0 1.4 0.9 1.5 2.1l1.4 51.4 -1.4 26.9c-0.1 1.2-0.7 2.1-1.5 2.1 -0.8 0-1.4-0.9-1.5-2.1L82.3 151l1.3-51.4C83.6 98.4 84.2 97.5 85 97.5z"/>
  </g>
  <g class="st0">
    <path class="st25" d="M78 107.1L78 107.1C78.1 107.1 78.1 107.1 78 107.1 78 107.1 78 107.1 78 107.1z"/>
    <g class="st0">
      <defs>
        <path class="st0" d="M78 107.1l-7.5 0c0 0 0 0 0 0L78 107.1C78 107.1 78 107.1 78 107.1z"/>
      </defs>
      <clipPath>
        <use xlink:href="#XMLID_507_"/>
      </clipPath>
      <g class="st26">
        <path class="st4" d="M78 107.1h-7.5c0 0 0 0 0 0L78 107.1C78 107.1 78 107.1 78 107.1"/>
      </g>
    </g>
    <g class="st0">
      <defs>
        <path class="st0" d="M76.8 109h-7.5c0-1.1 0.6-1.9 1.3-1.9H78C77.4 107.1 76.8 107.9 76.8 109z"/>
      </defs>
      <clipPath>
        <use xlink:href="#XMLID_503_"/>
      </clipPath>
      <g class="st27">
        <path class="st4" d="M76.8 109h-7.5c0-0.3 0.1-0.6 0.1-0.8h7.5C76.8 108.4 76.8 108.7 76.8 109M76.9 108.2h-7.5c0.1-0.2 0.2-0.4 0.3-0.6h7.5C77.1 107.8 77 108 76.9 108.2M77.2 107.6h-7.5c0.2-0.3 0.5-0.5 0.9-0.5H78C77.7 107.1 77.4 107.3 77.2 107.6"/>
      </g>
    </g>
    <g class="st0">
      <defs>
        <path class="st0" d="M78 179.8h-7.5c-0.7 0-1.3-0.8-1.3-1.9h7.5C76.8 179 77.3 179.8 78 179.8z"/>
      </defs>
      <clipPath>
        <use xlink:href="#XMLID_497_"/>
      </clipPath>
      <g class="st28">
        <path class="st4" d="M78 179.8h-7.5c-0.7 0-1.3-0.8-1.3-1.9h7.5C76.8 179 77.3 179.8 78 179.8"/>
      </g>
    </g>
    <polygon class="st6" points="75.4 150.9 67.9 150.9 69.3 109 76.8 109 "/>
    <polygon class="st11" points="76.7 177.9 69.2 177.9 67.9 150.9 75.4 150.9 "/>
    <path class="st8" d="M78 107.1c0.7 0 1.2 0.9 1.3 1.9l1.5 41.9 -1.5 27c0 1.1-0.6 1.9-1.3 1.9 -0.7 0-1.3-0.8-1.3-1.9l-1.3-27.1 1.4-41.9C76.8 107.9 77.4 107.1 78 107.1z"/>
  </g>
  <g class="st0">
    <g class="st0">
      <defs>
        <path class="st0" d="M71.1 179.6l-7.5 0c-0.6 0-1.1-0.7-1.2-1.7h7.5C70 178.8 70.5 179.6 71.1 179.6z"/>
      </defs>
      <clipPath>
        <use xlink:href="#XMLID_486_"/>
      </clipPath>
      <g class="st29">
        <path class="st4" d="M71.1 179.6h-7.5c-0.6 0-1.1-0.7-1.2-1.7h7.5C70 178.8 70.5 179.6 71.1 179.6"/>
      </g>
    </g>
    <g class="st0">
      <defs>
        <path class="st0" d="M69.9 125.1h-7.5c0-1 0.5-1.7 1.2-1.7h7.5C70.5 123.4 70 124.2 69.9 125.1z"/>
      </defs>
      <clipPath>
        <use xlink:href="#XMLID_482_"/>
      </clipPath>
      <g class="st30">
        <path class="st4" d="M69.9 125.1h-7.5c0-0.3 0.1-0.5 0.1-0.7h7.5C70 124.6 69.9 124.9 69.9 125.1M70.1 124.4h-7.5c0.1-0.2 0.2-0.4 0.3-0.5h7.5C70.2 124 70.1 124.2 70.1 124.4M70.3 123.9h-7.5c0.2-0.3 0.5-0.4 0.8-0.4h7.5C70.8 123.4 70.5 123.6 70.3 123.9"/>
      </g>
    </g>
    <polygon class="st6" points="68.5 150.8 61 150.8 62.4 125.1 69.9 125.1 "/>
    <polygon class="st31" points="69.9 177.9 62.4 177.9 61 150.8 68.5 150.8 "/>
    <path class="st8" d="M72.2 125.1l1.7 25.7 -1.6 27.1c0 1-0.5 1.7-1.2 1.7 -0.6 0-1.1-0.7-1.2-1.7l-1.4-27.1 1.4-25.7c0-1 0.5-1.7 1.2-1.7C71.7 123.4 72.2 124.2 72.2 125.1z"/>
  </g>
  <g class="st0">
    <g class="st0">
      <defs>
        <path class="st0" d="M64.2 179.1h-7.5c-0.5 0-1-0.6-1-1.4h7.5C63.2 178.5 63.6 179.1 64.2 179.1z"/>
      </defs>
      <clipPath>
        <use xlink:href="#XMLID_469_"/>
      </clipPath>
      <g class="st32">
        <path class="st4" d="M64.2 179.1h-7.5c-0.5 0-1-0.6-1-1.4h7.5C63.2 178.5 63.6 179.1 64.2 179.1"/>
      </g>
    </g>
    <g class="st0">
      <defs>
        <path class="st0" d="M63.2 123.1h-7.5c0-0.8 0.5-1.5 1-1.5h7.5C63.6 121.7 63.2 122.3 63.2 123.1z"/>
      </defs>
      <clipPath>
        <use xlink:href="#XMLID_465_"/>
      </clipPath>
      <g class="st33">
        <path class="st4" d="M63.2 123.1h-7.5c0-0.2 0-0.4 0.1-0.6h7.5C63.2 122.7 63.2 122.9 63.2 123.1M63.3 122.5h-7.5c0.1-0.2 0.1-0.3 0.2-0.5h7.5C63.4 122.2 63.3 122.3 63.3 122.5M63.5 122H56c0.2-0.2 0.4-0.4 0.7-0.4h7.5C63.9 121.7 63.7 121.8 63.5 122"/>
      </g>
    </g>
    <polygon class="st6" points="61.6 150.8 54.1 150.8 55.7 123.1 63.2 123.1 "/>
    <polygon class="st31" points="63.2 177.7 55.7 177.7 54.1 150.8 61.6 150.8 "/>
    <path class="st8" d="M64.2 121.7c0.5 0 1 0.6 1 1.4l1.7 27.7 -1.7 26.8c0 0.8-0.5 1.4-1 1.4 -0.5 0-1-0.6-1-1.4l-1.5-26.9 1.5-27.7C63.2 122.3 63.6 121.7 64.2 121.7z"/>
  </g>
  <g class="st0">
    <g class="st0">
      <defs>
        <path class="st0" d="M57.3 178.1h-7.5c-0.5 0-0.8-0.5-0.9-1.2h7.5C56.5 177.6 56.9 178.1 57.3 178.1z"/>
      </defs>
      <clipPath>
        <use xlink:href="#XMLID_452_"/>
      </clipPath>
      <g class="st34">
        <path class="st4" d="M57.3 178.1h-7.5c-0.5 0-0.8-0.5-0.9-1.2h7.5C56.5 177.6 56.9 178.1 57.3 178.1"/>
      </g>
    </g>
    <g class="st0">
      <defs>
        <path class="st0" d="M56.4 123.8l-7.5 0c0.1-0.7 0.4-1.2 0.9-1.2h7.5C56.9 122.6 56.5 123.1 56.4 123.8z"/>
      </defs>
      <clipPath>
        <use xlink:href="#XMLID_448_"/>
      </clipPath>
      <g class="st35">
        <path class="st4" d="M56.4 123.8l-7.5 0c0-0.2 0-0.3 0.1-0.5h7.5C56.5 123.5 56.4 123.7 56.4 123.8M56.5 123.4H49c0.1-0.2 0.1-0.3 0.2-0.4h7.5C56.7 123.1 56.6 123.2 56.5 123.4M56.7 122.9h-7.5c0.2-0.2 0.4-0.3 0.6-0.3h7.5C57.1 122.6 56.9 122.7 56.7 122.9"/>
      </g>
    </g>
    <polygon class="st6" points="54.8 150.8 47.3 150.8 48.9 123.8 56.4 123.8 "/>
    <polygon class="st36" points="56.5 176.8 49 176.8 47.3 150.8 54.8 150.8 "/>
    <path class="st8" d="M57.3 122.6c0.5 0 0.8 0.5 0.9 1.2l1.8 27 -1.8 26c-0.1 0.7-0.4 1.2-0.9 1.2 -0.5 0-0.8-0.5-0.9-1.2l-1.6-26 1.6-27C56.5 123.1 56.9 122.6 57.3 122.6z"/>
  </g>
  <g class="st0">
    <g class="st0">
      <defs>
        <path class="st0" d="M50.5 174.1H43c-0.4 0-0.7-0.4-0.7-1h7.5C49.8 173.7 50.1 174.1 50.5 174.1z"/>
      </defs>
      <clipPath>
        <use xlink:href="#XMLID_435_"/>
      </clipPath>
      <g class="st37">
        <path class="st4" d="M50.5 174.1H43c-0.4 0-0.7-0.4-0.7-1h7.5C49.8 173.7 50.1 174.1 50.5 174.1"/>
      </g>
    </g>
    <g class="st0">
      <defs>
        <path class="st0" d="M49.8 128.1h-7.5c0.1-0.6 0.4-1 0.7-1l7.5 0C50.1 127 49.8 127.5 49.8 128.1z"/>
      </defs>
      <clipPath>
        <use xlink:href="#XMLID_431_"/>
      </clipPath>
      <g class="st38">
        <path class="st4" d="M49.8 128.1h-7.5c0-0.1 0-0.3 0.1-0.4h7.5C49.8 127.8 49.8 128 49.8 128.1M49.9 127.7h-7.5c0-0.1 0.1-0.3 0.2-0.4h7.5C50 127.4 49.9 127.6 49.9 127.7M50.1 127.3h-7.5c0.1-0.2 0.3-0.3 0.5-0.3h7.5C50.3 127 50.2 127.1 50.1 127.3"/>
      </g>
    </g>
    <polygon class="st6" points="48.1 150.8 40.6 150.8 42.3 128.1 49.8 128.1 "/>
    <polygon class="st36" points="49.8 173.1 42.3 173.1 40.6 150.8 48.1 150.8 "/>
    <path class="st8" d="M50.5 127c0.4 0 0.7 0.4 0.7 1l1.9 22.8 -1.9 22.2c-0.1 0.6-0.4 1-0.7 1 -0.4 0-0.7-0.4-0.7-1l-1.7-22.2 1.7-22.8C49.8 127.5 50.1 127 50.5 127z"/>
  </g>
  <g class="st0">
    <g class="st0">
      <defs>
        <path class="st0" d="M44.1 165.7l-7.5 0c-0.4 0-0.6-0.4-0.7-1l7.5 0C43.5 165.2 43.7 165.7 44.1 165.7z"/>
      </defs>
      <clipPath>
        <use xlink:href="#XMLID_161_"/>
      </clipPath>
      <g class="st39">
        <path class="st4" d="M44.1 165.7h-7.5c-0.4 0-0.6-0.4-0.7-1l7.5 0C43.5 165.2 43.7 165.7 44.1 165.7"/>
      </g>
    </g>
    <g class="st0">
      <defs>
        <path class="st0" d="M43.4 136.8h-7.5c0-0.6 0.3-1 0.7-1h7.5C43.7 135.8 43.4 136.2 43.4 136.8z"/>
      </defs>
      <clipPath>
        <use xlink:href="#XMLID_157_"/>
      </clipPath>
      <g class="st40">
        <path class="st4" d="M43.4 136.8h-7.5c0-0.1 0-0.3 0.1-0.4h7.5C43.4 136.5 43.4 136.6 43.4 136.8M43.5 136.4H36c0-0.1 0.1-0.2 0.2-0.3h7.5C43.6 136.1 43.5 136.2 43.5 136.4M43.6 136h-7.5c0.1-0.2 0.3-0.3 0.5-0.3h7.5C43.9 135.8 43.8 135.9 43.6 136"/>
      </g>
    </g>
    <polygon class="st6" points="42.1 150.9 34.6 150.9 35.9 136.8 43.4 136.8 "/>
    <polygon class="st36" points="43.4 164.7 35.9 164.7 34.6 150.9 42.1 150.9 "/>
    <path class="st8" d="M44.1 135.8c0.4 0 0.7 0.4 0.7 0.9l1.5 14.1 -1.5 13.8c0 0.6-0.3 1-0.7 1 -0.4 0-0.6-0.4-0.7-1l-1.3-13.8 1.3-14.1C43.4 136.2 43.7 135.8 44.1 135.8z"/>
  </g>
</svg>
