<svg xmlns="http://www.w3.org/2000/svg" xmlns:xlink="http://www.w3.org/1999/xlink" version="1.1" x="0" y="0" viewBox="0 0 250 250" xml:space="preserve">
  <style type="text/css">
    
	.st0{enable-background:new    ;}
	.st1{clip-path:url(#XMLID_3_);enable-background:new    ;}
	.st2{fill:#1E5777;}
	.st3{fill:#1E5776;}
	.st4{clip-path:url(#XMLID_4_);enable-background:new    ;}
	.st5{fill:#1B5371;}
	.st6{fill:#1C5473;}
	.st7{clip-path:url(#XMLID_5_);enable-background:new    ;}
	.st8{fill:#1D5574;}
	.st9{fill:#3581AD;}

  </style>
  <g class="st0">
    <g class="st0">
      <defs>
        <path class="st0" d="M157.4 188.2h-7.5c4.8-0.2 11.2-1.7 14.6-3.5l7.5 0C168.7 186.5 162.2 188.1 157.4 188.2z"/>
      </defs>
      <clipPath>
        <use xlink:href="#XMLID_73_"/>
      </clipPath>
      <g class="st1">
        <path class="st2" d="M157.4 188.2h-7.5c4.8-0.2 11.2-1.7 14.6-3.5h7.5C168.7 186.5 162.2 188.1 157.4 188.2"/>
      </g>
    </g>
    <polygon class="st3" points="140.2 76 132.7 76 168.9 76 176.4 76 "/>
    <polygon class="st3" points="113.7 25 106.2 25 132.7 25 140.2 25 "/>
    <g class="st0">
      <defs>
        <path class="st0" d="M148 225h-7.5c-38.4 0-53-31.3-53-53.4h7.5C95.1 193.7 109.7 225 148 225z"/>
      </defs>
      <clipPath>
        <use xlink:href="#XMLID_65_"/>
      </clipPath>
      <g class="st4">
        <path class="st5" d="M148 225h-7.5c-38.4 0-53-31.3-53-53.4h7.5C95.1 193.7 109.7 225 148 225"/>
      </g>
    </g>
    <rect x="87.6" y="106.2" class="st6" width="7.5" height="65.3"/>
    <g class="st0">
      <defs>
        <path class="st0" d="M76.8 80.4l-7.5 0c27.4-10.9 34-38.3 35.6-53.9 0.1-1.1 0.9-1.5 1.3-1.5l7.5 0c-0.4 0-1.2 0.4-1.3 1.5C110.8 42.1 104.2 69.5 76.8 80.4z"/>
      </defs>
      <clipPath>
        <use xlink:href="#XMLID_59_"/>
      </clipPath>
      <g class="st7">
        <path class="st2" d="M76.8 80.4h-7.5c10.1-4 17.4-10.3 22.7-17.4h7.5C94.2 70.1 86.9 76.4 76.8 80.4M99.4 63h-7.5c4.2-5.7 7.1-12 9.1-18.1h7.5C106.6 51 103.7 57.2 99.4 63M108.6 44.9h-7.5c2.2-6.7 3.3-13.2 3.8-18.4 0-0.2 0-0.3 0.1-0.5l7.5 0c0 0.1-0.1 0.3-0.1 0.5C111.8 31.7 110.8 38.1 108.6 44.9M112.5 26l-7.5 0c0.1-0.2 0.1-0.4 0.2-0.5l7.5 0C112.6 25.7 112.5 25.9 112.5 26M112.7 25.6l-7.5 0c0.3-0.4 0.7-0.6 1-0.6h7.5C113.4 25 113 25.2 112.7 25.6"/>
      </g>
    </g>
    <rect x="69.3" y="80.4" class="st6" width="7.5" height="25.8"/>
    <path class="st9" d="M140.2 25V76h36.2v30.3H140v62.2c0.1 8.3 2.8 19.8 16.6 19.8h0.8c4.8-0.2 11.2-1.7 14.6-3.5l8.7 28.5c-3.3 5.3-18 11.4-31.3 11.7H148c-38.4 0-53-31.3-53-53.4v-65.3H76.8V80.4c27.4-10.9 34-38.3 35.6-53.9 0.1-1.1 0.9-1.5 1.3-1.5H140.2z"/>
  </g>
</svg>
