<svg xmlns="http://www.w3.org/2000/svg" xmlns:xlink="http://www.w3.org/1999/xlink" version="1.1" x="0" y="0" viewBox="0 0 250 250" xml:space="preserve">
  <style type="text/css">
    
	.st0{enable-background:new    ;}
	.st1{clip-path:url(#XMLID_3_);enable-background:new    ;}
	.st2{fill:#1E5777;}
	.st3{clip-path:url(#XMLID_4_);enable-background:new    ;}
	.st4{clip-path:url(#XMLID_5_);enable-background:new    ;}
	.st5{fill:#1B5371;}
	.st6{fill:#1D5574;}
	.st7{clip-path:url(#XMLID_6_);enable-background:new    ;}
	.st8{clip-path:url(#XMLID_7_);enable-background:new    ;}
	.st9{clip-path:url(#XMLID_8_);enable-background:new    ;}
	.st10{clip-path:url(#XMLID_9_);enable-background:new    ;}
	.st11{clip-path:url(#XMLID_10_);enable-background:new    ;}
	.st12{fill:#3581AD;}
	.st13{clip-path:url(#XMLID_12_);enable-background:new    ;}

  </style>
  <g class="st0">
    <g class="st0">
      <defs>
        <path class="st0" d="M194.9 70.3l-7.5 0c7.2-1 14-3.2 20.4-6.4l7.5 0C209 67.1 202.1 69.3 194.9 70.3z"/>
      </defs>
      <clipPath>
        <use xlink:href="#XMLID_103_"/>
      </clipPath>
      <g class="st1">
        <path class="st2" d="M194.9 70.3h-7.5c7.2-1 14-3.2 20.4-6.4h7.5C209 67.1 202.1 69.3 194.9 70.3"/>
      </g>
    </g>
    <g class="st0">
      <defs>
        <path class="st0" d="M188 57.7l-7.5 0c8.1-1.8 15.7-5.2 22.6-9.8l7.5 0C203.7 52.6 196.1 55.9 188 57.7z"/>
      </defs>
      <clipPath>
        <use xlink:href="#XMLID_99_"/>
      </clipPath>
      <g class="st3">
        <path class="st2" d="M188 57.7h-7.5c8.1-1.8 15.7-5.2 22.6-9.8h7.5C203.7 52.6 196.1 55.9 188 57.7"/>
      </g>
    </g>
    <g class="st0">
      <defs>
        <path class="st0" d="M127.4 94.6l-7.5 0c-0.6-3-0.9-6.1-0.9-9.2 0-22.3 15.9-40.4 35.5-40.4l7.5 0c-19.6 0-35.5 18.1-35.5 40.4C126.5 88.5 126.8 91.6 127.4 94.6z"/>
      </defs>
      <clipPath>
        <use xlink:href="#XMLID_95_"/>
      </clipPath>
      <g class="st4">
        <path class="st5" d="M127.4 94.6h-7.5c-0.6-3-0.9-6.1-0.9-9.2 0-4.9 0.8-9.7 2.2-14.1h7.5c-1.4 4.4-2.2 9.1-2.2 14.1C126.5 88.5 126.8 91.6 127.4 94.6M128.7 71.3h-7.5c1.4-4.4 3.5-8.4 6.1-11.9h7.5C132.2 62.9 130.2 66.9 128.7 71.3M134.8 59.4h-7.5c6.5-8.8 16.3-14.4 27.2-14.4h7.5C151.1 45 141.3 50.6 134.8 59.4"/>
      </g>
    </g>
    <g class="st0">
      <defs>
        <path class="st0" d="M68.2 142.8l-7.5 0c3.2 0 6.4-0.5 9.4-1.4l7.5 0C74.6 142.3 71.5 142.8 68.2 142.8z"/>
      </defs>
      <clipPath>
        <use xlink:href="#XMLID_89_"/>
      </clipPath>
      <g class="st7">
        <path class="st2" d="M68.2 142.8h-7.5c3.2 0 6.4-0.5 9.4-1.4h7.5C74.6 142.3 71.5 142.8 68.2 142.8"/>
      </g>
    </g>
    <g class="st0">
      <defs>
        <path class="st0" d="M94.8 170.1h-7.5c-15.6-0.3-28.7-12-33.2-28.1h7.5C66.1 158.1 79.2 169.8 94.8 170.1z"/>
      </defs>
      <clipPath>
        <use xlink:href="#XMLID_85_"/>
      </clipPath>
      <g class="st8">
        <path class="st5" d="M94.8 170.1h-7.5c-15.6-0.3-28.7-12-33.2-28.1h7.5C66.1 158.1 79.2 169.8 94.8 170.1"/>
      </g>
    </g>
    <g class="st0">
      <defs>
        <path class="st0" d="M50.6 187.4l-7.5 0c16.6 0 32-6.4 44.1-17.3h7.5C82.6 181 67.3 187.4 50.6 187.4z"/>
      </defs>
      <clipPath>
        <use xlink:href="#XMLID_81_"/>
      </clipPath>
      <g class="st9">
        <path class="st2" d="M50.6 187.4h-7.5c16.6 0 32-6.4 44.1-17.3h7.5C82.6 181 67.3 187.4 50.6 187.4"/>
      </g>
    </g>
    <g class="st0">
      <defs>
        <path class="st0" d="M65.2 106.3l-7.5 0c-9.5-7.2-15.8-19.6-15.8-33.6 0-7.4 1.7-14.4 4.8-20.3h7.5c-3.1 5.9-4.8 12.9-4.8 20.3C49.4 86.7 55.7 99.1 65.2 106.3z"/>
      </defs>
      <clipPath>
        <use xlink:href="#XMLID_77_"/>
      </clipPath>
      <g class="st10">
        <path class="st5" d="M65.2 106.3h-7.5c-9.5-7.2-15.8-19.6-15.8-33.6 0-5 0.8-9.7 2.2-14.1h7.5c-1.4 4.4-2.2 9.1-2.2 14.1C49.4 86.7 55.7 99.1 65.2 106.3M51.6 58.6h-7.5c0.7-2.2 1.6-4.2 2.6-6.2h7.5C53.2 54.4 52.3 56.5 51.6 58.6"/>
      </g>
    </g>
    <g class="st0">
      <defs>
        <path class="st0" d="M77.6 141.4l-7.5 0c-16.3-3.7-28.5-20.1-28.5-39.6l7.5 0C49.1 121.3 61.3 137.7 77.6 141.4z"/>
      </defs>
      <clipPath>
        <use xlink:href="#XMLID_72_"/>
      </clipPath>
      <g class="st11">
        <path class="st5" d="M77.6 141.4h-7.5c-16.3-3.7-28.5-20.1-28.5-39.6h7.5C49.1 121.3 61.3 137.7 77.6 141.4"/>
      </g>
    </g>
    <path class="st12" d="M215.3 63.9c-4.8 8.1-10.8 15.2-17.7 20.9 0.1 1.7 0.1 3.5 0.1 5.2C197.7 143.5 162 205 96.6 205c-20.1 0-38.7-6.7-54.5-18.1 2.8 0.4 5.6 0.6 8.5 0.6 16.6 0 32-6.4 44.1-17.3 -15.6-0.3-28.7-12-33.2-28.1 2.2 0.5 4.4 0.7 6.7 0.7 3.2 0 6.4-0.5 9.4-1.4 -16.3-3.7-28.5-20.1-28.5-39.6 4.8 2.5 10.3 4.3 16.1 4.6 -9.5-7.2-15.8-19.6-15.8-33.6 0-7.4 1.7-14.4 4.8-20.3 17.5 24.4 43.7 40.5 73.2 42.2 -0.6-3-0.9-6.1-0.9-9.2 0-22.3 15.9-40.4 35.5-40.4 10.2 0 19.5 4.9 25.9 12.7 8.1-1.8 15.7-5.2 22.6-9.8 -2.7 9.4-8.3 17.3-15.6 22.3C202.1 69.3 209 67.1 215.3 63.9z"/>
    <g class="st0">
      <defs>
        <path class="st0" d="M96.6 205h-7.5c-20.1 0-38.7-6.7-54.5-18.1h7.5C57.9 198.3 76.6 205 96.6 205z"/>
      </defs>
      <clipPath>
        <use xlink:href="#XMLID_66_"/>
      </clipPath>
      <g class="st13">
        <path class="st5" d="M96.6 205h-7.5c-20.1 0-38.7-6.7-54.5-18.1h7.5C57.9 198.3 76.6 205 96.6 205"/>
      </g>
    </g>
  </g>
</svg>
