<svg xmlns="http://www.w3.org/2000/svg" xmlns:xlink="http://www.w3.org/1999/xlink" version="1.1" x="0" y="0" viewBox="0 0 250 250" xml:space="preserve">
  <style type="text/css">
    
	.st0{enable-background:new    ;}
	.st1{fill:#205A7B;}
	.st2{fill:#19506E;}
	.st3{clip-path:url(#XMLID_2_);enable-background:new    ;}
	.st4{fill:#1B5371;}
	.st5{clip-path:url(#XMLID_3_);enable-background:new    ;}
	.st6{fill:#1E5777;}
	.st7{clip-path:url(#XMLID_4_);enable-background:new    ;}
	.st8{clip-path:url(#XMLID_7_);enable-background:new    ;}
	.st9{fill:#1C5473;}
	.st10{fill:#3581AD;}
	.st11{clip-path:url(#XMLID_9_);enable-background:new    ;}
	.st12{fill:#1D5574;}

  </style>
  <g class="st0">
    <polygon class="st1" points="110.9 152.9 103.4 152.9 150.2 123.1 157.7 123.1 "/>
    <polygon class="st2" points="157.7 123.1 150.2 123.1 103.4 93.2 110.9 93.2 "/>
    <g class="st0">
      <defs>
        <path class="st0" d="M128.8 200l-7.5 0c-2.3 0-45-0.5-58.9-2.1h7.5C83.7 199.5 126.5 200 128.8 200z"/>
      </defs>
      <clipPath>
        <use xlink:href="#XMLID_92_"/>
      </clipPath>
      <g class="st3">
        <path class="st4" d="M128.8 200h-7.5c-2.3 0-45-0.5-58.9-2.1h7.5C83.7 199.5 126.5 200 128.8 200"/>
      </g>
    </g>
    <g class="st0">
      <defs>
        <path class="st0" d="M69.9 52.1h-7.5C76.2 50.5 119 50 121.3 50l7.5 0C126.5 50 83.7 50.5 69.9 52.1z"/>
      </defs>
      <clipPath>
        <use xlink:href="#XMLID_88_"/>
      </clipPath>
      <g class="st5">
        <path class="st6" d="M69.9 52.1h-7.5C76.2 50.5 119 50 121.3 50h7.5C126.5 50 83.7 50.5 69.9 52.1"/>
      </g>
    </g>
    <g class="st0">
      <defs>
        <path class="st0" d="M69.9 197.9h-7.5c-3.9-0.9-12.5-0.6-19.1-9.1h7.5C57.3 197.3 66 197 69.9 197.9z"/>
      </defs>
      <clipPath>
        <use xlink:href="#XMLID_84_"/>
      </clipPath>
      <g class="st7">
        <path class="st4" d="M69.9 197.9h-7.5c-3.9-0.9-12.5-0.6-19.1-9.1h7.5C57.3 197.3 66 197 69.9 197.9"/>
      </g>
    </g>
    <g class="st0">
      <defs>
        <path class="st0" d="M50.8 188.8h-7.5c-5.2-6.5-6.8-20.3-6.9-21.1 -0.1-0.9-1.7-17.2-1.7-34.4h7.5c0 17.2 1.6 33.5 1.7 34.4C44 168.5 45.6 182.3 50.8 188.8z"/>
      </defs>
      <clipPath>
        <use xlink:href="#XMLID_80_"/>
      </clipPath>
      <g class="st8">
        <path class="st4" d="M50.8 188.8h-7.5c-5.2-6.5-6.8-20.3-6.9-21.1 -0.1-0.9-1.7-17.2-1.7-34.4h7.5c0 17.2 1.6 33.5 1.7 34.4C44 168.5 45.6 182.3 50.8 188.8"/>
      </g>
    </g>
    <rect x="34.6" y="116.6" class="st9" width="7.5" height="16.7"/>
    <path class="st10" d="M213.6 82.3c0.1 0.9 1.7 17.2 1.7 34.4v16.7c0 17.2-1.6 33.5-1.7 34.4 -0.1 0.7-1.7 14.6-6.9 21.1 -6.6 8.5-14 8.5-17.4 9 -24.2 2.2-58.8 2.2-60.6 2.2 -2.3 0-45-0.5-58.9-2.1 -3.9-0.9-12.5-0.6-19.1-9.1 -5.2-6.5-6.8-20.3-6.9-21.1 -0.1-0.9-1.7-17.2-1.7-34.4v-16.7c0-17.2 1.6-33.5 1.7-34.4 0.1-0.7 1.7-14.6 6.9-21.1 6.6-8.5 15.2-8.2 19.1-9.1 13.9-1.6 56.6-2.1 58.9-2.1 1.8 0 36.4 0 60.6 2.2 3.4 0.5 10.8 0.5 17.4 9C211.9 67.7 213.5 81.5 213.6 82.3zM110.9 152.9l46.8-29.7 -46.8-29.9V152.9"/>
    <g class="st0">
      <defs>
        <path class="st0" d="M42.1 116.6h-7.5c0-17.2 1.6-33.5 1.7-34.4 0.1-0.7 1.7-14.6 6.9-21.1 6.6-8.5 15.2-8.2 19.1-9.1h7.5C66 53 57.3 52.7 50.8 61.2c-5.2 6.5-6.8 20.3-6.9 21.1C43.8 83.1 42.1 99.5 42.1 116.6z"/>
      </defs>
      <clipPath>
        <use xlink:href="#XMLID_70_"/>
      </clipPath>
      <g class="st11">
        <path class="st4" d="M42.1 116.6h-7.5c0-17.2 1.6-33.5 1.7-34.4 0.1-0.5 0.8-6.7 2.7-12.7h7.5c-2 6-2.7 12.2-2.7 12.7C43.8 83.1 42.1 99.5 42.1 116.6M46.6 69.6h-7.5c1-2.9 2.2-5.8 3.9-8h7.5C48.8 63.7 47.6 66.6 46.6 69.6M50.5 61.6H43c0.1-0.1 0.2-0.3 0.3-0.4 6.6-8.5 15.2-8.2 19.1-9.1h7.5C66 53 57.3 52.7 50.8 61.2 50.7 61.3 50.6 61.4 50.5 61.6"/>
      </g>
    </g>
  </g>
</svg>
